<?xml version="1.0" standalone="no"?>
<!DOCTYPE svg PUBLIC "-//W3C//DTD SVG 1.1//EN" "http://www.w3.org/Graphics/SVG/1.1/DTD/svg11.dtd"><svg xmlns="http://www.w3.org/2000/svg" style="background-color:#FFF" width="615" height="360"><path stroke="black" fill="none" stroke-width="1" d="M449.3, 355L449.3, 307.9L451, 306.37"/><path stroke="black" fill="none" stroke-width="1" d="M13.701, 355L13.701, 223.5L449.301, 223.5M449.301, 223.5L449.301, 355"/><path stroke="black" fill="none" stroke-width="1" d="M13.7, 265.5L449.301, 230.4L449.301, 223.5L13.701, 223.5L13.701, 265.5L13.7, 265.5"/><path stroke="black" fill="none" stroke-width="1" d="M446.101, 355L446.101, 223.5L449.301, 223.5M449.301, 223.5L449.301, 355"/><path stroke="black" fill="none" stroke-width="1" d="M406.801, 355L406.801, 223.5L410.001, 223.5M410.001, 223.5L410.001, 355"/><path stroke="black" fill="none" stroke-width="1" d="M367.501, 355L367.501, 223.5L370.701, 223.5M370.701, 223.5L370.701, 355"/><path stroke="black" fill="none" stroke-width="1" d="M328.201, 355L328.201, 223.5L331.401, 223.5M331.401, 223.5L331.401, 355"/><path stroke="black" fill="none" stroke-width="1" d="M288.801, 355L288.801, 223.5L292.001, 223.5M292.001, 223.5L292.001, 355"/><path stroke="black" fill="none" stroke-width="1" d="M249.501, 355L249.501, 223.5L252.701, 223.5M252.701, 223.5L252.701, 355"/><path stroke="black" fill="none" stroke-width="1" d="M210.201, 355L210.201, 223.5L213.401, 223.5M213.401, 223.5L213.401, 355"/><path stroke="black" fill="none" stroke-width="1" d="M170.901, 355L170.901, 223.5L174.101, 223.5M174.101, 223.5L174.101, 355"/><path stroke="black" fill="none" stroke-width="1" d="M131.601, 355L131.601, 223.5L134.801, 223.5M134.801, 223.5L134.801, 355"/><path stroke="black" fill="none" stroke-width="1" d="M92.3, 355L92.3, 223.5L95.5, 223.5M95.5, 223.5L95.5, 355"/><path stroke="black" fill="none" stroke-width="1" d="M53, 355L53, 223.5L56.2, 223.5M56.2, 223.5L56.2, 355"/><path stroke="black" fill="none" stroke-width="1" d="M13.7, 355L13.7, 223.5L16.9, 223.5M16.9, 223.5L16.9, 355"/><path stroke="black" fill="none" stroke-width="1" d="M131.901, 97.8L130.468, 93.024L129.303, 88.859L128.496, 85.253L128.139, 82.15L128.32, 79.497L129.131, 77.241L129.8, 76.244L130.661, 75.326L131.724, 74.48L133.001, 73.7L134.559, 73.027L136.431, 72.501L138.577, 72.111L140.959, 71.848L143.535, 71.702L146.267, 71.663L152.039, 71.862L157.955, 72.367L163.699, 73.095L168.954, 73.967L171.298, 74.431L173.401, 74.9L175.264, 75.372L176.918, 75.857L178.362, 76.367L179.598, 76.913L180.626, 77.505L181.448, 78.155L182.065, 78.875L182.476, 79.675L182.684, 80.566L182.688, 81.56L182.491, 82.668L182.092, 83.9L181.492, 85.268L180.694, 86.784L179.696, 88.457L178.501, 90.3L131.901, 97.8"/><path stroke="black" fill="none" stroke-width="1" d="M127.101, 220.1L126.618, 205.286L126.46, 198.151L126.353, 191.214L126.293, 184.489L126.277, 177.988L126.301, 171.725L126.363, 165.713L126.46, 159.964L126.586, 154.492L126.74, 149.309L126.918, 144.43L127.117, 139.866L127.332, 135.631L127.561, 131.738L127.801, 128.2L125.454, 126.598L123.423, 125.095L121.687, 123.698L120.226, 122.413L119.018, 121.244L118.042, 120.198L117.276, 119.282L116.701, 118.5L116.395, 117.891L116.311, 117.232L116.447, 116.583L116.801, 116L120.709, 111.101L124.499, 106.414L128.193, 101.992L131.814, 97.887L135.382, 94.153L138.921, 90.842L142.454, 88.007L146.001, 85.7L149.736, 83.898L151.742, 83.203L153.848, 82.681L156.061, 82.359L158.387, 82.262L160.831, 82.417L163.401, 82.85L166.102, 83.588L168.94, 84.657L171.922, 86.083L175.054, 87.894L178.342, 90.114L181.791, 92.771L185.409, 95.891L189.201, 99.5L189.479, 100.418L189.101, 101.3L186.567, 103.675L183.901, 105.9L185.549, 108.865L187.282, 112.017L189.006, 115.176L190.626, 118.163L192.049, 120.797L193.182, 122.902L193.61, 123.699L193.931, 124.296L194.131, 124.67L194.201, 124.8L199.001, 124.8L201.274, 125.025L203.44, 125.683L205.436, 126.749L207.203, 128.198L208.652, 129.964L209.718, 131.961L210.376, 134.126L210.601, 136.4L210.531, 139.979L210.248, 143.752L209.754, 147.733L209.051, 151.937L208.142, 156.381L207.029, 161.08L205.715, 166.047L204.201, 171.3L207.528, 174.418L210.337, 177.871L212.669, 181.587L214.567, 185.491L216.072, 189.508L217.226, 193.564L218.072, 197.587L218.651, 201.5L219.005, 205.231L219.176, 208.704L219.205, 211.847L219.135, 214.584L219.008, 216.843L218.865, 218.547L218.749, 219.624L218.701, 220L127.101, 220.1"/><path stroke="black" fill="none" stroke-width="1" d="M204.201, 171.3L207.528, 174.419L210.337, 177.876L212.669, 181.596L214.567, 185.506L216.072, 189.531L217.226, 193.596L218.072, 197.627L218.651, 201.55L219.005, 205.29L219.176, 208.773L219.205, 211.924L219.135, 214.669L219.008, 216.933L218.865, 218.643L218.749, 219.723L218.701, 220.1L127.101, 220.1L126.744, 209.508L126.492, 199.28L126.338, 189.453L126.276, 180.062L126.298, 171.146L126.398, 162.739L126.568, 154.878L126.801, 147.6L134.128, 149.541L141.064, 151.593L147.598, 153.722L153.718, 155.897L159.414, 158.085L164.673, 160.253L169.485, 162.369L173.838, 164.4L177.722, 166.314L181.124, 168.079L184.034, 169.661L186.44, 171.028L188.331, 172.148L189.696, 172.989L190.523, 173.517L190.801, 173.7L205.901, 165.3L204.201, 171.3"/><path stroke="black" fill="none" stroke-width="1" d="M208.001, 175L207.064, 179.69L206.051, 184.677L204.964, 189.947L203.801, 195.488L202.564, 201.286L201.251, 207.33L199.864, 213.605L198.401, 220.1L175.701, 220.1L175.174, 214.448L174.305, 209.005L173.095, 203.771L171.545, 198.747L169.655, 193.932L167.425, 189.328L164.857, 184.934L161.951, 180.75L158.707, 176.777L155.127, 173.016L151.21, 169.466L146.957, 166.128L142.369, 163.002L137.447, 160.089L132.191, 157.388L126.601, 154.9L126.663, 151.175L126.801, 147.6L134.128, 149.541L141.064, 151.593L147.598, 153.722L153.718, 155.897L159.414, 158.085L164.673, 160.253L169.485, 162.369L173.838, 164.4L177.722, 166.314L181.124, 168.079L184.034, 169.661L186.44, 171.028L188.331, 172.148L189.696, 172.989L190.523, 173.517L190.801, 173.7L205.901, 165.3L204.201, 171.3L206.175, 173.074L208.001, 175"/><path stroke="black" fill="none" stroke-width="1" d="M138.901, 135.9L138.601, 135.9L133.023, 133.295L127.701, 130.2L127.801, 128.3L128.001, 128.3L133.074, 131.336L138.401, 133.9L146.801, 106.7L146.926, 106.331L147.56, 105.908L148.291, 106.123L148.578, 106.626L148.501, 107.2L139.801, 135.3L139.301, 135.9L138.901, 135.9"/><path stroke="black" fill="none" stroke-width="1" d="M176.101, 90.7L177.111, 92.675L177.897, 94.368L178.416, 95.787L178.621, 96.942L178.469, 97.841L177.913, 98.492L176.91, 98.905L175.413, 99.088L173.379, 99.049L170.762, 98.797L167.517, 98.341L163.599, 97.689L158.964, 96.851L156.363, 96.364L153.566, 95.834L150.566, 95.261L147.36, 94.647L143.94, 93.993L140.301, 93.3L176.101, 90.7"/><path stroke="black" fill="none" stroke-width="1" d="M195.901, 195.5L195.675, 196.433L194.901, 197L186.901, 199.5L187.701, 209.6L187.689, 209.998L187.289, 210.429L186.701, 210.4L165.101, 203.5L164.57, 203.065L164.401, 202.4L164.568, 201.218L164.806, 199.579L165.116, 197.53L165.501, 195.117L165.961, 192.387L166.496, 189.387L167.109, 186.163L167.801, 182.762L169.424, 175.618L171.376, 168.327L173.665, 161.263L174.939, 157.933L176.301, 154.8L177.25, 153.49L178.601, 152.6L180.145, 152.302L181.652, 152.552L182.984, 153.301L184.001, 154.5L185.701, 157.8L189.501, 157.8L190.438, 157.934L191.234, 158.388L191.814, 159.098L192.101, 160L195.901, 195.5"/><path stroke="black" fill="none" stroke-width="1" d="M177.401, 167.2L174.101, 201.7"/><path stroke="black" fill="none" stroke-width="1" d="M167.154, 116.711L166.61, 116.817L166.026, 116.726L164.813, 116.014L163.658, 114.698L162.703, 112.901L162.141, 110.945L162.058, 109.195L162.437, 107.841L162.793, 107.37L163.258, 107.068L163.802, 106.962L164.386, 107.054L165.599, 107.766L166.754, 109.081L167.709, 110.878L168.271, 112.834L168.353, 114.584L167.975, 115.939L167.619, 116.409L167.154, 116.711"/><path stroke="black" fill="none" stroke-width="1" d="M177.463, 122.24L175.915, 124.459L175.024, 125.314L174.093, 125.976L173.149, 126.43L172.221, 126.659L171.336, 126.645L170.522, 126.373L169.84, 125.853L169.331, 125.128L168.999, 124.232L168.844, 123.197L168.868, 122.054L169.074, 120.837L170.039, 118.309L171.588, 116.09L172.479, 115.236L173.41, 114.573L174.353, 114.119L175.281, 113.891L176.166, 113.905L176.98, 114.177L177.662, 114.697L178.171, 115.421L178.504, 116.317L178.659, 117.352L178.634, 118.495L178.428, 119.712L177.463, 122.24"/><path stroke="black" fill="none" stroke-width="1" d="M192.188, 122.26L190.64, 124.479L189.749, 125.334L188.818, 125.996L187.875, 126.45L186.946, 126.679L186.062, 126.665L185.248, 126.393L184.566, 125.873L184.057, 125.149L183.724, 124.253L183.569, 123.218L183.594, 122.075L183.8, 120.858L184.765, 118.33L186.313, 116.111L187.204, 115.256L188.135, 114.594L189.078, 114.14L190.007, 113.911L190.891, 113.925L191.705, 114.197L192.387, 114.717L192.896, 115.442L193.229, 116.338L193.384, 117.373L193.359, 118.516L193.153, 119.732L192.188, 122.26"/><path stroke="black" fill="none" stroke-width="1" d="M182.074, 116.228L182.577, 115.602L182.706, 114.394L182.468, 112.776L181.87, 110.918L181.01, 109.167L180.057, 107.838L179.125, 107.059L178.328, 106.957L177.826, 107.583L177.697, 108.791L177.934, 110.409L178.532, 112.267L179.393, 114.018L180.346, 115.347L181.278, 116.126L182.074, 116.228"/><path stroke="black" fill="none" stroke-width="1" d="M191.601, 142.4L188.719, 142.285L185.873, 141.924L183.079, 141.323L180.351, 140.488L177.704, 139.422L175.154, 138.132L172.714, 136.623L170.401, 134.9L169.339, 133.996L168.47, 133.191L167.268, 131.856L166.711, 130.85L166.714, 130.125L167.189, 129.634L168.053, 129.331L169.218, 129.169L170.601, 129.1L171.499, 129.09L172.702, 129.099L174.17, 129.124L175.862, 129.164L179.75, 129.288L184.039, 129.462L188.397, 129.679L192.496, 129.93L194.346, 130.065L196.007, 130.206L197.44, 130.351L198.601, 130.5L199.559, 130.761L200.4, 131.225L201.109, 131.861L201.67, 132.641L202.069, 133.534L202.292, 134.511L202.325, 135.543L202.151, 136.6L201.757, 137.652L201.128, 138.67L200.25, 139.624L199.107, 140.484L197.686, 141.222L195.971, 141.807L193.947, 142.209L191.601, 142.4"/><path stroke="black" fill="none" stroke-width="1" d="M191.601, 142.4L188.719, 142.285L185.873, 141.924L183.079, 141.323L180.351, 140.488L177.704, 139.422L175.154, 138.132L172.714, 136.623L170.401, 134.9L169.339, 133.996L168.47, 133.191L167.268, 131.856L166.711, 130.85L166.714, 130.125L167.189, 129.634L168.053, 129.331L169.218, 129.169L170.601, 129.1L171.499, 129.09L172.702, 129.099L174.17, 129.124L175.862, 129.164L179.75, 129.288L184.039, 129.462L188.397, 129.679L192.496, 129.93L194.346, 130.065L196.007, 130.206L197.44, 130.351L198.601, 130.5L199.559, 130.761L200.4, 131.225L201.109, 131.861L201.67, 132.641L202.069, 133.534L202.292, 134.511L202.325, 135.543L202.151, 136.6L201.757, 137.652L201.128, 138.67L200.25, 139.624L199.107, 140.484L197.686, 141.222L195.971, 141.807L193.947, 142.209L191.601, 142.4"/><path stroke="black" fill="none" stroke-width="1" d="M191.201, 153.6L190.801, 149.9L192.904, 149.627L194.965, 149.15L196.969, 148.473L198.901, 147.6"/><path stroke="black" fill="none" stroke-width="1" d="M195.301, 141.9L194.722, 142.041L193.933, 142.187L191.784, 142.419L188.971, 142.434L185.613, 142.075L181.829, 141.181L179.814, 140.484L177.737, 139.594L175.612, 138.49L173.455, 137.153L171.279, 135.563L169.101, 133.7L173.881, 133.581L178.131, 133.87L181.9, 134.528L185.238, 135.512L188.198, 136.783L190.828, 138.298L193.179, 140.018L195.301, 141.9"/><path stroke="black" fill="none" stroke-width="1" d="M184.201, 118.7L178.101, 118.7"/><path stroke="black" fill="none" stroke-width="1" d="M142.001, 116.7L140.301, 115.9L139.424, 115.372L138.757, 114.624L138.337, 113.715L138.201, 112.7L138.318, 111.844L138.636, 111.041L139.461, 110.021L140.559, 109.379L141.812, 109.157L143.101, 109.4L168.901, 119.9"/><path stroke="black" fill="none" stroke-width="1" d="M169.501, 106L166.533, 106.638L163.501, 106.8"/><path stroke="black" fill="none" stroke-width="1" d="M182.201, 106L180.399, 106.622L178.501, 106.8"/><path stroke="black" fill="none" stroke-width="1" d="M135.301, 94.3L141.723, 94.166L147.625, 93.956L153.036, 93.675L157.99, 93.328L162.518, 92.922L166.652, 92.461L170.423, 91.952L173.864, 91.4L177.005, 90.81L179.88, 90.189L182.52, 89.541L184.956, 88.872L189.345, 87.494L193.301, 86.1L195.083, 85.416L196.61, 84.755L197.886, 84.119L198.92, 83.513L199.717, 82.939L200.283, 82.402L200.626, 81.904L200.751, 81.45L200.665, 81.043L200.375, 80.686L199.887, 80.383L199.207, 80.138L197.299, 79.833L194.701, 79.8L193.022, 79.968L190.93, 80.345L188.457, 80.907L185.631, 81.63L182.483, 82.49L179.044, 83.465L175.344, 84.53L171.414, 85.663L162.981, 88.033L153.99, 90.389L144.682, 92.541L135.301, 94.3"/><path stroke="black" fill="none" stroke-width="1" d="M126.501, 158.1L126.301, 167.9L131.201, 166L131.496, 165.877L132.335, 165.529L133.651, 164.984L135.376, 164.273L137.444, 163.426L139.786, 162.472L145.026, 160.363L150.556, 158.183L155.839, 156.17L158.218, 155.301L160.333, 154.563L162.117, 153.986L163.501, 153.6L165.818, 153.236L168.146, 153.239L170.523, 153.563L172.989, 154.163L175.58, 154.992L178.337, 156.005L181.298, 157.156L184.501, 158.4L186.041, 159.034L187.334, 159.661L188.397, 160.282L189.243, 160.897L190.353, 162.109L190.788, 163.3L190.676, 164.472L190.14, 165.628L189.307, 166.77L188.301, 167.9L187.352, 168.882L186.468, 169.603L185.441, 170.104L184.064, 170.425L182.128, 170.605L180.886, 170.655L179.428, 170.684L177.725, 170.699L175.754, 170.703L173.488, 170.702L170.901, 170.7L165.855, 174.407L161.234, 177.912L157.004, 181.21L153.132, 184.295L149.587, 187.163L146.334, 189.809L143.341, 192.227L140.576, 194.412L138.005, 196.36L135.596, 198.064L133.316, 199.52L131.132, 200.723L129.012, 201.668L126.921, 202.349L124.829, 202.761L122.701, 202.9L120.161, 202.74L117.721, 202.203L115.387, 201.202L113.164, 199.65L111.057, 197.461L109.074, 194.547L108.131, 192.791L107.22, 190.822L106.343, 188.629L105.501, 186.2L104.823, 183.734L104.435, 181.428L104.331, 179.268L104.507, 177.239L104.958, 175.328L105.677, 173.521L106.66, 171.804L107.901, 170.163L109.395, 168.583L111.138, 167.053L113.123, 165.556L115.345, 164.08L117.799, 162.61L120.48, 161.133L123.382, 159.634L126.501, 158.1"/><path stroke="black" fill="none" stroke-width="1" d="M224.401, 169.3L225.601, 169.23L226.651, 169.338L227.551, 169.652L228.301, 170.2L229.032, 171.449L229.22, 173.12L228.892, 175.141L228.076, 177.437L226.801, 179.935L225.095, 182.561L222.985, 185.24L220.501, 187.9L217.813, 190.356L215.12, 192.452L212.492, 194.156L210.001, 195.437L207.716, 196.264L205.707, 196.605L204.046, 196.427L202.801, 195.7L202.253, 194.95L201.939, 194.05L201.831, 193L201.901, 191.8L183.801, 176.7L209.401, 151.2L224.401, 169.3"/><path stroke="black" fill="none" stroke-width="1" d="M199.965, 167.378L197.331, 169.874L194.744, 172.065L192.269, 173.914L189.971, 175.384L187.915, 176.436L186.165, 177.033L184.786, 177.137L183.843, 176.712L183.418, 175.769L183.522, 174.39L184.119, 172.64L185.171, 170.584L186.641, 168.286L188.49, 165.811L190.681, 163.224L193.177, 160.59L195.811, 158.094L198.398, 155.902L200.873, 154.053L203.172, 152.584L205.228, 151.532L206.978, 150.935L208.357, 150.83L209.299, 151.256L209.725, 152.198L209.62, 153.577L209.023, 155.327L207.971, 157.384L206.502, 159.682L204.653, 162.157L202.461, 164.744L199.965, 167.378"/><path stroke="black" fill="none" stroke-width="1" d="M198.227, 165.664L195.864, 167.946L193.585, 169.995L191.445, 171.77L189.497, 173.234L187.797, 174.348L186.398, 175.075L185.354, 175.375L184.721, 175.21L184.556, 174.577L184.856, 173.533L185.583, 172.134L186.697, 170.434L188.161, 168.486L189.936, 166.346L191.985, 164.067L194.267, 161.704L196.63, 159.421L198.909, 157.373L201.05, 155.598L202.997, 154.133L204.698, 153.019L206.097, 152.293L207.14, 151.993L207.773, 152.158L207.938, 152.791L207.638, 153.834L206.911, 155.233L205.797, 156.934L204.333, 158.881L202.558, 161.022L200.51, 163.301L198.227, 165.664"/><path stroke="black" fill="none" stroke-width="1" d="M223.001, 161.7L224.49, 162.076L225.726, 162.737L226.699, 163.662L227.401, 164.825L227.821, 166.204L227.951, 167.775L227.781, 169.515L227.301, 171.4L226.886, 172.223L226.301, 172.872L225.588, 173.337L224.79, 173.61L223.95, 173.682L223.11, 173.544L222.313, 173.186L221.601, 172.6L220.411, 170.797L219.904, 168.756L220.096, 166.662L221.001, 164.7L223.001, 161.7"/><path stroke="black" fill="none" stroke-width="1" d="M215.501, 158.7L213.301, 155.9L215.711, 155.48L217.823, 155.537L219.612, 156.027L221.051, 156.9L222.115, 158.111L222.779, 159.612L223.016, 161.358L222.801, 163.3L221.865, 166.195L220.52, 168.905L218.79, 171.388L216.701, 173.6L215.786, 174.221L214.701, 174.44L213.617, 174.221L212.701, 173.6L211.901, 172.9L211.24, 171.9L210.947, 170.769L211.031, 169.603L211.501, 168.5L212.773, 166.477L214.026, 164.087L215.017, 161.455L215.501, 158.7"/><path stroke="black" fill="none" stroke-width="1" d="M135.301, 94.3L147.501, 93.3L176.801, 87.5L169.501, 80.3L134.601, 80.3L135.301, 94.3"/><path stroke="black" fill="none" stroke-width="1" d="M194.401, 131.2L194.306, 131.657L194.165, 132.309L193.714, 133.925L192.981, 135.503L192.488, 136.108L191.901, 136.5L191.252, 136.628L190.593, 136.495L189.941, 136.112L189.314, 135.487L188.728, 134.634L188.203, 133.561L187.754, 132.279L187.401, 130.8L194.401, 131.2"/><path stroke="black" fill="none" stroke-width="1" d="M172.801, 130.3L179.601, 130.4L179.338, 131.962L178.926, 133.9L178.251, 135.688L177.78, 136.361L177.201, 136.8L176.561, 136.947L175.923, 136.797L175.299, 136.361L174.701, 135.65L174.14, 134.677L173.629, 133.453L173.179, 131.99L172.801, 130.3"/><path stroke="black" fill="none" stroke-width="1" d="M4.301, 223.5L451, 223.5"/><path stroke="black" fill="none" stroke-width="1" d="M184.401, 174.7L183.803, 172.572L183.254, 169.937L182.126, 164.05L181.458, 161.247L180.66, 158.838L179.69, 157.047L179.125, 156.454L178.501, 156.1L178.801, 155.4L187.001, 158.5L191.201, 158.3L194.401, 161.6L198.301, 165.4L198.301, 165.6L195.945, 167.801L193.592, 169.745L191.337, 171.42L189.276, 172.813L187.506, 173.91L186.123, 174.698L185.222, 175.166L184.901, 175.3L184.801, 175.2L184.401, 174.7"/><path stroke="black" fill="none" stroke-width="1" d="M185.701, 157.9L187.601, 157.9L189.103, 161.066L190.463, 164.25L191.024, 165.632L191.468, 166.759L191.77, 167.544L191.901, 167.9L191.794, 168.555L191.301, 169L191.001, 169L190.521, 168.807L190.201, 168.4L188.093, 163.089L185.701, 157.9"/><path stroke="black" fill="none" stroke-width="1" d="M186.901, 199.7L187.001, 201.4L181.001, 203.2L186.601, 208.1L186.93, 208.729L186.68, 209.42L186.001, 209.7L185.703, 209.63L185.501, 209.4L178.701, 203.5L178.437, 203.088L178.401, 202.6L178.626, 202.225L179.001, 202L186.701, 199.7L186.901, 199.7"/><path stroke="black" fill="none" stroke-width="1" d="M126.001, 167.6L111.901, 174.3"/><path stroke="black" fill="none" stroke-width="1" d="M180.901, 82.8L169.303, 85.742L157.633, 88.374L145.897, 90.693L134.101, 92.7"/><path stroke="black" fill="none" stroke-width="1" d="M193.401, 178.6L192.874, 177.84L192.745, 176.924L193.041, 176.048L193.701, 175.4L194.001, 175.2L194.614, 174.987L195.249, 174.97L195.859, 175.143L196.401, 175.5L206.901, 185.6L207.41, 186.345L207.54, 187.198L207.301, 188.027L206.701, 188.7L206.077, 188.964L205.418, 189.015L204.775, 188.859L204.201, 188.5L193.401, 178.6"/><path stroke="black" fill="none" stroke-width="1" d="M223.801, 162.2L223.4, 164.427L222.709, 166.572L221.739, 168.605L220.501, 170.5"/><path stroke="black" fill="none" stroke-width="1" d="M309.19, 32.232L308.695, 33.775L307.917, 35.146L306.897, 36.32L305.673, 37.272L304.284, 37.978L302.769, 38.412L301.167, 38.551L299.516, 38.369L297.933, 37.869L296.523, 37.096L295.312, 36.087L294.326, 34.88L293.59, 33.515L293.13, 32.03L292.973, 30.462L293.142, 28.85L293.637, 27.307L294.415, 25.936L295.435, 24.762L296.659, 23.81L298.048, 23.104L299.563, 22.67L301.165, 22.531L302.816, 22.712L304.399, 23.212L305.809, 23.986L307.02, 24.995L308.006, 26.201L308.742, 27.567L309.202, 29.052L309.359, 30.62L309.19, 32.232"/><path stroke="black" fill="none" stroke-width="1" d="M362.699, 106.5L365.508, 106.785L368.466, 107.391L371.581, 108.395L374.862, 109.875L378.315, 111.908L381.951, 114.572L385.776, 117.943L387.762, 119.919L389.799, 122.1L391.991, 120.14L393.982, 118.892L395.872, 118.326L397.761, 118.412L399.749, 119.122L401.935, 120.427L404.418, 122.296L407.299, 124.7L408.961, 126.102L410.812, 127.632L414.947, 130.984L419.437, 134.575L424.011, 138.225L428.403, 141.753L432.344, 144.978L434.062, 146.421L435.566, 147.721L436.823, 148.855L437.799, 149.8L439.37, 151.716L440.671, 154.031L441.536, 156.655L441.799, 159.5L441.653, 160.977L441.293, 162.476L440.7, 163.985L439.852, 165.494L438.729, 166.991L437.31, 168.465L435.573, 169.905L433.499, 171.3L431.145, 172.433L428.601, 173.119L425.896, 173.396L423.058, 173.305L420.116, 172.882L417.099, 172.167L414.033, 171.197L410.949, 170.013L404.837, 167.151L398.99, 163.889L393.635, 160.536L391.213, 158.922L388.999, 157.4L384.653, 154.434L380.165, 151.469L375.756, 148.625L371.649, 146.025L369.779, 144.854L368.067, 143.791L366.543, 142.849L365.233, 142.044L364.166, 141.391L363.37, 140.906L362.871, 140.604L362.699, 140.5L362.699, 106.5"/><path stroke="black" fill="none" stroke-width="1" d="M403.999, 121.9L406.299, 123.8L407.697, 125.285L408.799, 127L411.038, 131.617L412.899, 136.4L413.673, 139.59L413.804, 142.436L413.379, 144.98L412.486, 147.262L411.214, 149.325L409.651, 151.208L405.999, 154.6L403.835, 156.233L401.811, 157.388L399.882, 158.073L397.999, 158.3L396.443, 158.095L394.953, 157.635L393.562, 156.932L392.299, 156L392.053, 155.423L392.246, 154.826L392.78, 154.498L393.399, 154.6L394.537, 155.463L395.658, 156.141L396.813, 156.579L398.049, 156.725L399.417, 156.524L400.965, 155.922L402.742, 154.865L404.799, 153.3L406.867, 151.488L408.627, 149.698L410.055, 147.888L411.124, 146.012L411.809, 144.029L412.083, 141.895L411.922, 139.567L411.299, 137L409.746, 133.098L408.009, 129.276L406.093, 125.541L403.999, 121.9"/><path stroke="black" fill="none" stroke-width="1" d="M407.199, 166.2L407.053, 166.095L406.634, 165.795L405.973, 165.317L405.099, 164.681L404.042, 163.908L402.833, 163.015L400.074, 160.95L394.036, 156.244L391.236, 153.912L388.899, 151.8"/><path stroke="black" fill="none" stroke-width="1" d="M335.881, 105.224L331.03, 106.37L326.198, 107.055L321.413, 107.293L316.705, 107.099L312.104, 106.487L307.64, 105.473L303.342, 104.069L299.24, 102.292L295.363, 100.155L291.741, 97.672L288.403, 94.86L285.379, 91.731L282.699, 88.3L280.393, 84.583L278.489, 80.593L277.017, 76.345L276.029, 71.959L275.545, 67.565L275.546, 63.19L276.016, 58.862L276.937, 54.61L278.292, 50.46L280.062, 46.442L282.231, 42.583L284.781, 38.91L287.694, 35.453L290.954, 32.238L294.541, 29.294L298.44, 26.648L302.632, 24.329L307.1, 22.365L311.827, 20.783L316.678, 19.637L321.511, 18.952L326.295, 18.714L331.003, 18.907L335.604, 19.519L340.068, 20.534L344.366, 21.937L348.468, 23.715L352.345, 25.852L355.968, 28.334L359.305, 31.147L362.329, 34.276L365.009, 37.706L367.316, 41.423L369.22, 45.413L370.691, 49.661L371.679, 54.047L372.163, 58.441L372.162, 62.816L371.692, 67.144L370.771, 71.396L369.416, 75.546L367.646, 79.564L365.477, 83.423L362.927, 87.096L360.014, 90.553L356.754, 93.768L353.167, 96.713L349.268, 99.358L345.076, 101.677L340.608, 103.642L335.881, 105.224"/><path stroke="black" fill="none" stroke-width="1" d="M289.799, 58.2L290.032, 54.732L290.691, 51.569L291.713, 48.771L293.037, 46.4L294.599, 44.516L296.338, 43.181L298.192, 42.455L300.099, 42.4L301.914, 42.883L303.522, 43.731L304.903, 44.945L306.037, 46.525L306.903, 48.47L307.482, 50.781L307.754, 53.458L307.699, 56.5L307.399, 63.8L307.262, 67.083L306.976, 69.944L306.504, 72.364L305.812, 74.325L304.861, 75.808L303.616, 76.794L302.041, 77.264L300.099, 77.2L298.02, 76.519L296.085, 75.202L294.335, 73.324L292.812, 70.963L291.555, 68.193L290.607, 65.092L290.008, 61.736L289.799, 58.2"/><path stroke="black" fill="none" stroke-width="1" d="M332.199, 58.8L331.027, 56.695L330.517, 54.341L330.714, 51.941L331.599, 49.701L333.09, 47.302L334.563, 45.191L336.016, 43.352L337.446, 41.765L338.851, 40.414L340.23, 39.279L342.899, 37.589L345.437, 36.55L347.827, 36.018L350.053, 35.85L352.099, 35.901L353.979, 36.235L355.663, 37.034L357.068, 38.332L358.112, 40.164L358.709, 42.562L358.815, 43.985L358.779, 45.562L358.589, 47.298L358.236, 49.197L357.71, 51.263L356.999, 53.501L358.043, 54.731L358.888, 55.943L359.999, 58.282L360.36, 60.462L359.999, 62.426L358.944, 64.118L357.224, 65.482L354.866, 66.462L351.899, 67.001L348.813, 67.219L346.036, 67.224L343.504, 66.947L341.149, 66.313L338.907, 65.254L336.711, 63.696L334.497, 61.569L332.199, 58.801L332.199, 58.8"/><path stroke="black" fill="none" stroke-width="1" d="M389.399, 192.1L393.559, 197.288L397.414, 202.042L400.965, 206.399L404.21, 210.398L407.15, 214.078L409.784, 217.478L412.113, 220.634L414.136, 223.587L415.854, 226.375L417.265, 229.037L418.37, 231.609L419.169, 234.133L419.662, 236.645L419.848, 239.185L419.727, 241.79L419.299, 244.5L418.554, 247.473L417.498, 250.824L416.159, 254.53L414.565, 258.566L412.742, 262.907L410.717, 267.531L408.519, 272.411L406.174, 277.525L403.709, 282.847L401.153, 288.354L395.871, 299.822L390.547, 311.736L385.399, 323.9L369.799, 284.6L384.599, 249.3L384.38, 249.109L383.748, 248.553L382.738, 247.661L381.388, 246.458L379.734, 244.972L377.812, 243.23L375.659, 241.26L373.311, 239.088L370.806, 236.741L368.178, 234.246L362.704, 228.923L357.18, 223.336L351.899, 217.7L314.799, 197.9L313.282, 198.349L311.738, 198.595L308.65, 198.494L305.687, 197.621L304.299, 196.902L302.999, 196L301.629, 194.612L300.535, 192.901L299.683, 190.886L299.038, 188.588L298.567, 186.027L298.237, 183.224L298.013, 180.2L297.861, 176.975L297.641, 170.004L297.304, 162.475L296.58, 154.552L295.989, 150.495L295.199, 146.4L294.535, 142.436L294.306, 138.754L294.459, 135.351L294.94, 132.223L295.693, 129.367L296.665, 126.778L297.802, 124.452L299.049, 122.388L300.352, 120.579L301.658, 119.024L302.911, 117.718L304.058, 116.658L305.045, 115.84L305.817, 115.26L306.319, 114.914L306.499, 114.8L305.399, 114.4L303.998, 113.516L303.264, 112.489L302.911, 111.31L302.951, 110.08L303.399, 108.9L303.799, 108.2L298.099, 100.2L301.385, 97.204L304.641, 94.608L307.862, 92.385L311.043, 90.508L314.179, 88.947L317.266, 87.676L320.299, 86.665L323.274, 85.887L329.029, 84.92L334.493, 84.548L339.629, 84.55L344.399, 84.7L349.718, 84.76L355.03, 84.562L360.327, 84.109L365.599, 83.4L366.657, 83.5L367.534, 84.019L368.118, 84.853L368.299, 85.9L368.012, 89.409L367.691, 93.123L367.359, 96.835L367.037, 100.338L366.747, 103.422L366.513, 105.883L366.424, 106.814L366.356, 107.511L366.314, 107.948L366.299, 108.1L368.212, 110.75L369.909, 113.373L372.715, 118.525L374.831, 123.527L376.374, 128.35L377.457, 132.967L378.196, 137.35L378.705, 141.47L379.099, 145.3L379.393, 147.08L379.878, 148.779L381.299, 152.134L383.114, 155.766L384.091, 157.811L385.074, 160.075L386.031, 162.609L386.931, 165.462L387.743, 168.685L388.436, 172.328L388.98, 176.441L389.342, 181.074L389.492, 186.277L389.399, 192.1"/><path stroke="black" fill="none" stroke-width="1" d="M365.599, 223.3L365.662, 223.385L365.86, 223.646L366.212, 224.092L366.733, 224.733L367.441, 225.578L368.352, 226.638L369.482, 227.921L370.849, 229.438L372.469, 231.196L374.359, 233.207L376.535, 235.48L379.015, 238.023L381.814, 240.848L384.95, 243.962L388.44, 247.377L392.299, 251.1L392.83, 251.765L393.133, 252.541L393.193, 253.371L392.999, 254.2L392.464, 255.494L391.803, 257.115L391.025, 259.043L390.141, 261.261L389.16, 263.75L388.093, 266.492L386.948, 269.469L385.736, 272.663L383.15, 279.625L380.413, 287.233L377.603, 295.34L374.799, 303.8"/><path stroke="black" fill="none" stroke-width="1" d="M317.699, 178L304.299, 168.9L304.391, 168.774L304.656, 168.41L305.076, 167.831L305.635, 167.061L307.099, 165.035L308.911, 162.512L310.935, 159.676L313.032, 156.708L315.066, 153.788L316.899, 151.1L317.999, 149.4L318.462, 148.962L319.099, 149L319.523, 149.413L319.599, 150L318.685, 156.285L318.347, 159.157L318.079, 161.842L317.873, 164.337L317.723, 166.638L317.622, 168.739L317.562, 170.637L317.535, 172.328L317.536, 173.808L317.556, 175.071L317.588, 176.114L317.626, 176.933L317.662, 177.523L317.688, 177.88L317.699, 178"/><path stroke="black" fill="none" stroke-width="1" d="M368.099, 87.6L367.699, 93.2L364.815, 93.855L361.843, 94.336L358.748, 94.664L355.499, 94.862L352.062, 94.953L348.405, 94.958L344.495, 94.899L340.299, 94.8L336.041, 94.712L331.888, 94.769L327.718, 95.116L323.411, 95.9L318.847, 97.265L316.43, 98.211L313.904, 99.356L311.252, 100.72L308.461, 102.32L305.515, 104.174L302.399, 106.3L299.399, 102L302.785, 99.715L306.013, 97.722L309.093, 96.003L312.035, 94.536L314.85, 93.303L317.548, 92.285L320.14, 91.461L322.636, 90.813L327.382, 89.964L331.869, 89.583L336.18, 89.513L340.399, 89.6L348.454, 89.752L352.213, 89.732L355.786, 89.613L359.168, 89.367L362.351, 88.967L365.33, 88.387L368.099, 87.6"/><path stroke="black" fill="none" stroke-width="1" d="M362.699, 190.5L363.303, 190.273L363.599, 189.7L363.398, 183.669L362.721, 177.731L361.683, 172.009L360.399, 166.625L358.984, 161.7L357.552, 157.356L356.866, 155.44L356.219, 153.716L355.625, 152.197L355.099, 150.9L353.255, 145.962L351.819, 140.899L350.799, 135.737L350.199, 130.5L349.851, 127.186L349.421, 124.086L348.93, 121.228L348.399, 118.638L347.849, 116.343L347.302, 114.37L346.778, 112.747L346.299, 111.5L349.699, 84.7L347.899, 84.7L344.499, 111.8L344.499, 112L344.95, 113.115L345.46, 114.641L346.005, 116.546L346.561, 118.8L347.103, 121.373L347.607, 124.234L348.047, 127.354L348.399, 130.7L349.005, 136.057L350.028, 141.343L351.461, 146.532L353.299, 151.6L353.842, 152.876L354.448, 154.369L355.794, 157.945L357.228, 162.208L358.636, 167.038L359.909, 172.312L360.935, 177.911L361.602, 183.714L361.799, 189.6L362.063, 190.236L362.699, 190.5"/><path stroke="black" fill="none" stroke-width="1" d="M351.633, 355L350.999, 352.325L350.228, 349.009L349.408, 345.394L347.799, 337.9L347.083, 334.54L346.188, 330.586L345.135, 326.114L343.947, 321.2L342.647, 315.921L341.255, 310.352L338.286, 298.65L335.22, 286.705L332.232, 275.125L330.823, 269.663L329.499, 264.52L328.284, 259.774L327.199, 255.5L325.099, 247.344L322.927, 239.061L320.797, 230.85L318.824, 222.913L317.123, 215.448L316.41, 211.956L315.808, 208.658L315.332, 205.578L314.995, 202.742L314.813, 200.174L314.799, 197.9L355.999, 206.3L358.441, 214.996L360.991, 224.004L366.329, 242.634L371.842, 261.541L374.612, 270.895L377.361, 280.075L380.07, 288.999L382.717, 297.587L385.28, 305.757L387.738, 313.428L390.07, 320.519L392.255, 326.949L393.286, 329.89L394.272, 332.636L395.211, 335.176L396.099, 337.5L400.153, 336.625L404.268, 336.249L408.399, 336.374L412.499, 337L414.079, 337.499L415.316, 338.161L416.241, 338.971L416.886, 339.913L417.283, 340.972L417.463, 342.133L417.299, 344.7L418.242, 344.858L419.111, 345.223L419.875, 345.776L420.499, 346.5M420.499, 346.5L421.127, 347.934L421.324, 349.5L421.173, 350.314L420.808, 351.141L420.195, 351.971L419.299, 352.8L418.642, 353.237L417.734, 353.715L416.598, 354.226L415.255, 354.759L414.547, 355"/><path stroke="black" fill="none" stroke-width="1" d="M359.199, 336.3L356.926, 329.178L354.545, 321.773L352.072, 314.104L349.526, 306.187L346.924, 298.041L344.284, 289.683L338.961, 272.4L333.7, 254.48L328.641, 236.063L323.927, 217.289L319.699, 198.3"/><path stroke="black" fill="none" stroke-width="1" d="M339.599, 192.1L339.334, 193.16L338.605, 194.127L337.398, 195.058L335.699, 196.013L333.494, 197.046L330.768, 198.217L327.508, 199.583L323.699, 201.2L319.108, 203.23L314.774, 205.145L310.678, 206.926L306.802, 208.553L303.129, 210.008L299.642, 211.272L296.321, 212.326L293.149, 213.15L290.109, 213.726L287.181, 214.034L284.35, 214.056L281.596, 213.772L278.902, 213.163L276.249, 212.211L273.621, 210.897L270.999, 209.2L268.624, 207.143L266.734, 204.773L265.305, 202.115L264.311, 199.191L263.731, 196.024L263.539, 192.638L263.711, 189.056L264.224, 185.3L265.053, 181.394L266.175, 177.362L267.565, 173.226L269.199, 169.009L271.054, 164.735L273.104, 160.427L277.699, 151.8L280.014, 147.694L282.107, 143.947L284.01, 140.533L285.757, 137.427L287.38, 134.602L288.912, 132.033L290.387, 129.695L291.837, 127.562L294.794, 123.809L298.047, 120.567L301.861, 117.633L304.061, 116.216L306.499, 114.8L309.474, 115.311L312.138, 116.22L314.491, 117.493L316.533, 119.094L318.265, 120.988L319.686, 123.139L320.797, 125.513L321.599, 128.075L322.091, 130.789L322.274, 133.62L322.149, 136.534L321.715, 139.494L320.972, 142.466L319.922, 145.414L318.564, 148.304L316.899, 151.1L315.066, 153.788L313.032, 156.708L310.935, 159.676L308.911, 162.512L307.099, 165.035L305.635, 167.061L305.076, 167.831L304.656, 168.41L304.391, 168.774L304.299, 168.9L304.418, 168.823L304.759, 168.603L305.298, 168.255L306.01, 167.797L307.859, 166.611L310.112, 165.175L315.057, 162.066L317.362, 160.65L319.299, 159.5L320.897, 158.898L322.351, 158.995L323.713, 159.723L325.037, 161.012L326.374, 162.794L327.779, 164.998L329.303, 167.557L330.999, 170.4L332.755, 173.482L334.396, 176.716L335.882, 179.973L337.174, 183.125L338.231, 186.043L339.015, 188.597L339.484, 190.659L339.588, 191.465L339.599, 192.1"/><path stroke="black" fill="none" stroke-width="1" d="M323.899, 199.7L325.073, 200.058L326.299, 200.1L324.487, 200.555L322.678, 200.378L321.029, 199.612L319.699, 198.3L318.288, 196.212L316.887, 193.525L315.466, 190.2L313.999, 186.2L312.861, 182.882L311.854, 179.889L310.984, 177.198L310.261, 174.787L309.693, 172.635L309.288, 170.717L309.054, 169.013L308.999, 167.5L309.114, 166.721L309.414, 166.007L309.882, 165.389L310.499, 164.9L312.399, 163.7L311.441, 164.908L310.888, 166.348L310.731, 168.124L310.962, 170.338L311.572, 173.09L312.554, 176.483L313.181, 178.452L313.899, 180.619L314.705, 182.997L315.599, 185.6L316.702, 188.622L317.768, 191.248L318.805, 193.498L319.824, 195.387L320.833, 196.935L321.843, 198.158L322.861, 199.074L323.899, 199.7"/><path stroke="black" fill="none" stroke-width="1" d="M291.799, 176.6L292.058, 176.437L292.796, 175.972L293.951, 175.245L295.463, 174.294L297.271, 173.158L299.314, 171.875L303.862, 169.025L308.62, 166.053L313.104, 163.269L315.09, 162.044L316.825, 160.981L318.249, 160.121L319.299, 159.5L320.901, 158.898L322.365, 158.995L323.739, 159.723L325.074, 161.012L326.418, 162.794L327.821, 164.998L329.331, 167.557L330.999, 170.4"/><path stroke="black" fill="none" stroke-width="1" d="M348.899, 52.8L373.799, 45.8L374.795, 45.658L375.784, 45.748L376.725, 46.063L377.58, 46.593L378.289, 47.307L378.806, 48.154L379.115, 49.098L379.199, 50.1L378.991, 65.848L379.506, 81.58L380.742, 97.273L382.699, 112.9"/><path stroke="black" fill="none" stroke-width="1" d="M366.699, 114.6L366.449, 113.683L366.799, 112.8L368.404, 110.865L369.741, 109.247L370.879, 107.924L371.886, 106.875L372.833, 106.079L373.788, 105.516L374.82, 105.163L375.999, 105L378.61, 104.894L380.072, 104.88L381.736, 104.9L383.678, 104.957L385.969, 105.056L388.685, 105.202L391.899, 105.4L392.606, 105.693L392.899, 106.4L392.904, 107.659L392.922, 109.386L392.957, 111.542L393.011, 114.087L393.089, 116.985L393.194, 120.195L393.33, 123.68L393.499, 127.4L393.577, 127.67L393.804, 128.45L394.169, 129.699L394.661, 131.375L395.271, 133.435L395.988, 135.838L396.801, 138.54L397.699, 141.5L397.649, 142.39L396.999, 143L394.785, 143.67L392.336, 144.388L389.869, 145.011L387.599, 145.4L385.421, 145.542L382.849, 145.488L381.304, 145.372L379.527, 145.189L377.474, 144.934L375.099, 144.6L374.608, 144.26L374.399, 143.7L374.407, 142.656L374.426, 141.237L374.446, 139.538L374.461, 137.65L374.441, 133.688L374.389, 131.8L374.299, 130.1L373.812, 128.847L373.069, 127.186L372.132, 125.222L371.061, 123.063L368.772, 118.583L367.678, 116.476L366.699, 114.6"/><path stroke="black" fill="none" stroke-width="1" d="M396.699, 142.2L382.099, 141.2L382.699, 124.1L373.899, 105.5L375.999, 105L378.61, 104.894L380.072, 104.88L381.736, 104.9L383.678, 104.957L385.969, 105.056L388.685, 105.202L391.899, 105.4L392.606, 105.693L392.899, 106.4L392.904, 107.659L392.922, 109.386L392.957, 111.542L393.011, 114.087L393.089, 116.985L393.194, 120.195L393.33, 123.68L393.499, 127.4L393.577, 127.67L393.804, 128.45L394.169, 129.699L394.661, 131.375L395.271, 133.435L395.988, 135.838L396.801, 138.54L397.699, 141.5L397.649, 142.39L396.999, 143L397.29, 142.706L397.149, 142.45L396.858, 142.269L396.699, 142.2"/><path stroke="black" fill="none" stroke-width="1" d="M383.199, 141.7L376.399, 141.8L374.696, 141.696L373.372, 141.402L372.365, 140.94L371.611, 140.338L370.619, 138.805L369.899, 137L369.358, 135.205L369.324, 133.513L369.927, 131.839L370.509, 130.983L371.299, 130.1L371.233, 129.984L371.051, 129.656L370.437, 128.5L369.654, 126.894L368.899, 125.1L368.745, 124.146L368.946, 123.072L369.479, 121.862L370.324, 120.5L371.46, 118.969L372.865, 117.253L374.518, 115.336L376.399, 113.2L378.245, 111.222L379.846, 109.755L381.254, 108.744L382.524, 108.137L383.71, 107.883L384.865, 107.927L386.043, 108.217L387.299, 108.7L393.637, 111.978L399.599, 115.9L400.644, 116.95L401.493, 118.266L402.201, 119.792L402.824, 121.475L404.043, 125.097L405.599, 128.7L407.266, 132.216L407.816, 134.033L408.062, 135.9L407.918, 137.823L407.301, 139.809L406.123, 141.866L404.299, 144L402.184, 146.08L400.183, 147.95L398.291, 149.576L396.499, 150.925L394.801, 151.965L393.19, 152.662L391.658, 152.985L390.199, 152.9L388.877, 152.439L387.741, 151.67L386.762, 150.613L385.911, 149.288L385.159, 147.713L384.476, 145.911L383.199, 141.7"/><path stroke="black" fill="none" stroke-width="1" d="M371.499, 129L385.499, 115.8"/><path stroke="black" fill="none" stroke-width="1" d="M384.299, 134.2L387.375, 135.811L390.54, 137.234L393.784, 138.465L397.099, 139.5L397.699, 141.5L397.649, 142.39L396.999, 143L394.785, 143.67L392.336, 144.388L389.869, 145.011L387.599, 145.4L385.421, 145.542L382.849, 145.488L381.304, 145.372L379.527, 145.189L377.474, 144.934L375.099, 144.6L374.608, 144.26L374.399, 143.7L374.401, 142.973L374.411, 142.012L374.499, 139.5L379.488, 137.014L384.299, 134.2"/><path stroke="black" fill="none" stroke-width="1" d="M397.099, 139.5L397.099, 139.6L397.699, 141.5L397.799, 142L397.699, 142.4L396.999, 143L397.29, 142.706L397.149, 142.45L396.858, 142.269L396.699, 142.2L382.399, 141.3L382.099, 141L382.299, 135.5L384.299, 134.2L387.375, 135.811L390.54, 137.234L393.784, 138.465L397.099, 139.5"/><path stroke="black" fill="none" stroke-width="1" d="M322.799, 162L325.001, 159.139L326.878, 156.066L328.416, 152.811L329.599, 149.4L330.355, 146.969L331.074, 144.425L331.68, 142.144L331.918, 141.219L332.099, 140.5L332.663, 139.442L333.686, 138.712L335.066, 138.377L336.699, 138.5L338.179, 138.916L339.161, 139.65L339.464, 140.248L339.638, 141.059L339.684, 142.129L339.599, 143.5L339.428, 145.27L339.227, 147.386L338.799, 151.938L338.605, 154.015L338.446, 155.72L338.338, 156.875L338.309, 157.19L338.299, 157.3L322.799, 162"/><path stroke="black" fill="none" stroke-width="1" d="M368.799, 164.4L369.751, 167.317L370.561, 170.112L370.87, 171.344L371.091, 172.402L371.207, 173.236L371.199, 173.8L370.986, 174.789L370.474, 175.862L370.023, 176.317L369.399, 176.655L368.569, 176.831L367.499, 176.8L363.847, 176.264L360.187, 175.888L358.115, 175.844L355.757, 175.942L353.016, 176.216L349.799, 176.7L349.001, 177.773L347.955, 179.133L346.656, 180.692L345.099, 182.363L343.279, 184.056L341.193, 185.686L338.834, 187.163L336.199, 188.4L334.11, 185.904L332.066, 182.925L330.105, 179.59L328.262, 176.025L326.573, 172.357L325.076, 168.713L323.805, 165.218L322.799, 162L326.429, 157.958L328.053, 156.071L329.562, 154.338L330.962, 152.806L332.263, 151.523L333.473, 150.539L334.599, 149.9L342.059, 147.433L349.699, 145.6L355.026, 144.874L360.399, 144.7L361.347, 144.833L362.137, 145.313L362.832, 146.261L363.499, 147.8L363.682, 148.643L363.593, 149.314L363.288, 149.837L362.824, 150.238L361.643, 150.767L360.499, 151.1L359.797, 151.291L358.705, 151.558L357.286, 151.893L355.599, 152.288L351.668, 153.223L347.399, 154.3L349.799, 154.228L352.424, 154.175L354.937, 154.159L356.999, 154.2L358.968, 154.315L360.56, 154.447L361.831, 154.611L362.837, 154.825L364.269, 155.466L365.299, 156.5L366.183, 157.875L366.974, 159.55L367.802, 161.675L368.799, 164.4"/><path stroke="black" fill="none" stroke-width="1" d="M292.799, 58.3L293, 56.809L293.358, 55.431L293.843, 54.194L294.424, 53.125L295.07, 52.253L295.752, 51.606L296.438, 51.212L297.099, 51.1L298.305, 51.416L299.249, 52.275L299.564, 52.938L299.743, 53.772L299.762, 54.789L299.599, 56L299.184, 58.436L298.999, 60.9L298.919, 62.256L298.754, 63.402L298.502, 64.344L298.161, 65.088L297.732, 65.639L297.213, 66.005L295.899, 66.2L295.179, 65.975L294.529, 65.472L293.96, 64.72L293.486, 63.75L293.121, 62.593L292.876, 61.278L292.799, 58.3"/><path stroke="black" fill="none" stroke-width="1" d="M327.099, 8.9L328.703, 8.719L330.273, 8.832L331.775, 9.218L333.176, 9.86L334.442, 10.739L335.541, 11.834L336.437, 13.128L337.099, 14.6L337.634, 16.459L338.044, 18.447L338.222, 20.468L338.061, 22.425L337.455, 24.223L336.297, 25.766L335.478, 26.411L334.481, 26.957L333.292, 27.39L331.899, 27.7L330.616, 27.792L329.302, 27.689L327.937, 27.382L326.499, 26.863L324.967, 26.123L323.321, 25.155L321.538, 23.95L319.599, 22.5L318.113, 21.439L316.546, 20.609L314.842, 20.057L312.949, 19.825L310.812, 19.959L308.377, 20.503L305.591, 21.502L302.399, 23L301.567, 22.305L300.911, 21.513L300.149, 19.744L300.054, 18.821L300.156, 17.909L300.461, 17.035L300.974, 16.225L301.7, 15.506L302.645, 14.906L303.814, 14.451L305.211, 14.169L306.844, 14.085L308.715, 14.228L310.832, 14.624L313.199, 15.3L311.366, 12.598L310.177, 10.128L309.574, 7.907L309.499, 5.95L309.892, 4.275L310.696, 2.897L311.851, 1.833L313.299, 1.1L314.962, 0.656L316.763, 0.491L318.641, 0.668L320.537, 1.25L322.39, 2.301L324.141, 3.884L325.731, 6.063L327.099, 8.9"/><path stroke="black" fill="none" stroke-width="1" d="M327.099, 23.3L329.386, 25.682L331.999, 27.7L331.899, 27.7L330.495, 27.762L329.099, 27.6L327.308, 26.097L325.699, 24.4L323.585, 21.442L321.687, 18.288L318.199, 11.5L316.511, 8.092L314.899, 5.163L314.121, 3.991L313.361, 3.077L312.621, 2.464L311.899, 2.2L311.199, 2.4L312.178, 1.635L313.299, 1.1L313.599, 1.1L314.415, 1.722L315.215, 2.588L316.774, 4.9L318.296, 7.738L319.799, 10.8L321.376, 13.977L323.112, 17.238L325.016, 20.405L327.099, 23.3"/><path stroke="black" fill="none" stroke-width="1" d="M337.199, 24.7L336.474, 25.575L335.599, 26.3L335.306, 23.833L334.786, 21.42L334.046, 19.076L333.094, 16.815L331.936, 14.653L330.58, 12.603L329.032, 10.681L327.299, 8.9L328.444, 8.737L329.599, 8.8L332.447, 12.274L334.687, 16.134L336.284, 20.302L337.199, 24.7"/><path stroke="black" fill="none" stroke-width="1" d="M351.633, 355L350.999, 352.325L350.228, 349.009L349.408, 345.394L347.799, 337.9L347.399, 335.7M347.399, 335.7L349.338, 333.339L351.434, 331.305L353.678, 329.572L356.057, 328.119L358.561, 326.921L361.178, 325.955L363.899, 325.197L366.711, 324.625L372.568, 323.942L378.66, 323.719L391.199, 323.9L392.527, 327.741L393.799, 331.3L394.996, 334.559L396.099, 337.5L400.153, 336.625L404.268, 336.249L408.399, 336.373L412.499, 337L414.079, 337.499L415.316, 338.161L416.241, 338.971L416.886, 339.913L417.283, 340.972L417.463, 342.133L417.299, 344.7L418.242, 344.856L419.112, 345.221L419.876, 345.775L420.499, 346.5L421.127, 347.934L421.324, 349.5L421.173, 350.314L420.808, 351.141L420.195, 351.971L419.299, 352.8L418.642, 353.237L417.734, 353.715L416.598, 354.226L415.255, 354.759L414.547, 355"/><path stroke="black" fill="none" stroke-width="1" d="M351.633, 355L350.999, 352.325L350.228, 349.009L349.408, 345.394L347.799, 337.9L347.399, 335.7M347.399, 335.7L349.338, 333.339L351.434, 331.305L353.678, 329.572L356.057, 328.119L358.561, 326.921L361.178, 325.955L363.899, 325.197L366.711, 324.625L372.568, 323.942L378.66, 323.719L391.199, 323.9L392.527, 327.741L393.799, 331.3L394.996, 334.559L396.099, 337.5L400.153, 336.625L404.268, 336.249L408.399, 336.373L412.499, 337L414.079, 337.499L415.316, 338.161L416.241, 338.971L416.886, 339.913L417.283, 340.972L417.463, 342.133L417.299, 344.7L418.242, 344.856L419.112, 345.221L419.876, 345.775L420.499, 346.5L421.127, 347.934L421.324, 349.5L421.173, 350.314L420.808, 351.141L420.195, 351.971L419.299, 352.8L418.642, 353.237L417.734, 353.715L416.598, 354.226L415.255, 354.759L414.547, 355"/><path stroke="black" fill="none" stroke-width="1" d="M396.099, 337.5L394.799, 337.8L394.599, 337.8L383.699, 340L383.399, 339.2L382.456, 334.894L382.099, 330.5L381.918, 328.461L381.455, 326.881L380.721, 325.705L379.724, 324.875L378.474, 324.336L376.98, 324.031L375.252, 323.905L373.299, 323.9L373.599, 323.2L374.272, 321.778L375.14, 320.5L376.182, 319.38L377.373, 318.435L378.694, 317.68L380.119, 317.128L381.629, 316.797L383.199, 316.7L392.299, 316.7L393.837, 317.057L395.085, 318.025L395.818, 319.423L395.899, 321L395.233, 324.691L394.924, 328.55L395.027, 332.334L395.599, 335.8L396.099, 337.5"/><path stroke="black" fill="none" stroke-width="1" d="M366.543, 355L364.111, 351.138L362.54, 349.21L360.81, 347.517L358.928, 346.151L356.899, 345.2L355.044, 344.815L353.15, 344.841L351.305, 345.276L349.599, 346.1L349.199, 344.3L351.186, 343.483L353.277, 343.091L355.403, 343.128L357.499, 343.6M357.499, 343.6L359.838, 344.697L361.979, 346.266L363.92, 348.195L365.661, 350.375L367.201, 352.696L368.511, 355"/><path stroke="black" fill="none" stroke-width="1" d="M394.726, 355L397.387, 354.238L400.687, 353.2L403.751, 352.167L406.575, 351.17L409.153, 350.24L411.482, 349.409L413.556, 348.709L415.37, 348.169L416.919, 347.823L418.199, 347.7L418.908, 347.831L419.524, 348.188L420.399, 349.35L420.674, 350.738L420.54, 351.375L420.199, 351.9M420.199, 351.9L419.299, 352.8L418.642, 353.237L417.734, 353.715L416.598, 354.226L415.255, 354.759L414.547, 355"/><path stroke="black" fill="none" stroke-width="1" d="M400.899, 141.9L399.214, 141.346L397.663, 140.513L396.28, 139.424L395.099, 138.1"/><path stroke="black" fill="none" stroke-width="1" d="M351.199, 130.4L349.733, 130.13L348.503, 129.373L347.621, 128.229L347.199, 126.8L346.399, 117.7L348.199, 117.7L353.499, 126.4L353.837, 127.767L353.475, 129.048L352.55, 130.005L351.919, 130.287L351.199, 130.4"/><path stroke="black" fill="none" stroke-width="1" d="M316.299, 114.8L306.499, 114.8"/><path stroke="black" fill="none" stroke-width="1" d="M362.199, 228.4L361.224, 224.961L360.249, 221.588L359.832, 220.157L359.499, 219.02L359.279, 218.271L359.199, 218L365.156, 213.961L370.962, 209.712L376.612, 205.257L382.099, 200.6L382.005, 200.811L381.735, 201.424L381.309, 202.411L380.744, 203.742L380.061, 205.389L379.278, 207.324L378.413, 209.516L377.487, 211.938L375.522, 217.353L373.535, 223.339L371.677, 229.665L370.099, 236.1L362.199, 228.4"/><path stroke="black" fill="none" stroke-width="1" d="M384.599, 249.3L394.299, 248.9"/><path stroke="black" fill="none" stroke-width="1" d="M396.099, 337.5L394.799, 337.8L394.599, 337.8L388.137, 339.546L381.799, 341.7L381.499, 341.7L381.008, 341.522L380.699, 341.1L380.646, 340.599L380.901, 340.164L381.199, 340L383.399, 339.1L389.446, 337.208L395.599, 335.7L396.099, 337.5"/><path stroke="black" fill="none" stroke-width="1" d="M369.099, 165.2L368.799, 164.4L368.399, 163.4L361.808, 162.8L355.124, 162.425L348.402, 162.387L341.699, 162.8L341.092, 163.135L340.899, 163.8L341.107, 164.283L341.547, 164.57L341.899, 164.6L348.694, 164.145L355.536, 164.188L362.36, 164.586L369.099, 165.2"/><path stroke="black" fill="none" stroke-width="1" d="M301.199, 53.8L303.499, 60.3L295.399, 56.6L301.199, 53.8"/><path stroke="black" fill="none" stroke-width="1" d="M351.599, 355L360.774, 354.908L370.174, 354.412L374.9, 353.911L379.611, 353.186L384.286, 352.196L388.899, 350.9L393.29, 349.473L397.344, 348.145L401.111, 346.961L404.637, 345.963L407.97, 345.194L411.16, 344.698L414.254, 344.519L417.299, 344.7L418.242, 344.857L419.112, 345.221L419.876, 345.775L420.499, 346.5L421.103, 347.831L421.251, 349.25L420.947, 350.644L420.199, 351.9M420.199, 351.9L420.407, 351.359L420.137, 350.95L419.397, 350.691L418.199, 350.6L416.919, 350.694L415.37, 350.962L413.556, 351.378L411.482, 351.919L409.153, 352.56L406.575, 353.279L403.751, 354.05L400.687, 354.85L400.072, 355"/><path stroke="black" fill="none" stroke-width="1" d="M388.899, 319.9L385.736, 319.958L382.799, 320.437L381.461, 320.979L380.236, 321.798L379.143, 322.953L378.199, 324.5L376.399, 324.2L377.523, 322.253L378.844, 320.789L380.328, 319.74L381.937, 319.037L383.634, 318.611L385.385, 318.392L388.899, 318.3L393.899, 318.3L394.781, 318.626L395.45, 319.242L395.844, 320.061L395.899, 321L395.499, 322.7L395.652, 322.064L395.749, 321.588L395.696, 321.167L395.399, 320.7L394.711, 320.28L393.574, 320.037L392.024, 319.927L390.099, 319.9L388.899, 319.9"/><path stroke="black" fill="none" stroke-width="1" d="M352.499, 56.9L352.356, 56.734L351.921, 56.303L351.181, 55.708L350.124, 55.05L348.739, 54.429L347.015, 53.947L344.938, 53.704L342.499, 53.8L344.284, 53.363L345.827, 52.814L347.15, 52.174L348.274, 51.463L350.008, 49.905L351.199, 48.3"/><path stroke="black" fill="none" stroke-width="1" d="M154.4, 355L154.4, 345.4L154.651, 342.724L155.404, 340.17L156.629, 337.805L158.3, 335.7L164.9, 329.3L166.041, 327.982L166.885, 326.477L167.412, 324.833L167.6, 323.1L167.6, 307.1L167.814, 304.674L168.422, 302.37L169.393, 300.227L170.696, 298.284L172.299, 296.58L174.172, 295.156L176.283, 294.049L178.6, 293.3L182.627, 292.391L186.663, 291.689L190.68, 291.196L194.65, 290.913L198.545, 290.84L202.337, 290.98L205.998, 291.333L209.5, 291.9L211.896, 292.618L214.082, 293.714L216.024, 295.146L217.689, 296.873L219.043, 298.853L220.052, 301.046L220.682, 303.408L220.9, 305.9L220.9, 355"/><path stroke="black" fill="none" stroke-width="1" d="M171.5, 332.6L171.082, 332.263L170.972, 331.738L171.1, 331.4L172.024, 329.221L172.719, 326.756L173.216, 324.038L173.55, 321.1L173.856, 314.694L173.9, 307.8L173.953, 304.172L174.175, 301.05L174.659, 298.378L175.5, 296.1L176.237, 294.971L177.192, 294.041L178.326, 293.341L179.6, 292.9L183, 292.2L180.849, 293.166L179.159, 294.3L177.878, 295.659L176.95, 297.3L176.322, 299.278L175.941, 301.65L175.751, 304.472L175.7, 307.8L175.653, 314.847L175.325, 321.425L174.968, 324.462L174.434, 327.291L173.69, 329.88L172.7, 332.2L172.354, 332.507L171.9, 332.6L171.5, 332.6"/><path stroke="black" fill="none" stroke-width="1" d="M177.301, 355L177.301, 345.8L177.326, 343.188L177.409, 340.88L177.559, 338.841L177.788, 337.037L178.106, 335.436L178.524, 334.002L179.7, 331.5L180.828, 329.247L181.643, 326.874L182.137, 324.414L182.301, 321.9L182.301, 311.8L182.244, 307.555L182.204, 303.698L182.375, 300.271L182.95, 297.312L183.451, 296.023L184.126, 294.865L185, 293.846L186.097, 292.97L187.441, 292.243L189.057, 291.668L190.968, 291.252L193.2, 291L197.265, 290.875L201.326, 290.984L205.375, 291.326L209.401, 291.9L211.812, 292.605L214.013, 293.693L215.971, 295.121L217.65, 296.847L219.018, 298.83L220.038, 301.028L220.677, 303.398L220.901, 305.9M220.901, 305.9L220.901, 355"/><path stroke="black" fill="none" stroke-width="1" d="M200.276, 355L200.563, 354.762L202.458, 352.393L203.852, 349.655L204.685, 346.604L204.9, 343.3M204.9, 343.3L204.347, 336.875L203.194, 330.639L201.525, 324.574L199.425, 318.663L196.978, 312.887L194.269, 307.23L188.4, 296.2L188.053, 295.221L188.172, 294.432L188.583, 293.783L189.216, 293.348L190, 293.2L192, 293.2L193.192, 293.552L194.1, 294.4L200.194, 305.866L203.051, 311.736L205.65, 317.725L207.893, 323.855L209.681, 330.147L210.916, 336.621L211.5, 343.3L211.285, 346.604L210.452, 349.655L209.058, 352.393L207.162, 354.762L206.875, 355"/><path stroke="black" fill="none" stroke-width="1" d="M219.059, 355L220.324, 353.652L221.664, 351.69L222.702, 349.504L223.521, 346.453L223.7, 343.3M223.7, 343.3L223.143, 336.875L221.98, 330.639L220.299, 324.574L218.188, 318.663L215.734, 312.887L213.027, 307.23L207.2, 296.2L206.852, 295.249L207.021, 294.308L207.622, 293.566L208.57, 293.208L208.801, 293.2L210.801, 293.2L211.956, 293.542L212.801, 294.4L218.938, 305.866L221.801, 311.736L224.401, 317.725L226.645, 323.855L228.438, 330.147L229.688, 336.621L230.301, 343.3L230.118, 346.469L229.301, 349.503L227.886, 352.309L225.908, 354.792L225.657, 355"/><path stroke="black" fill="none" stroke-width="1" d="M207.4, 316.3L227.7, 319.8L228.753, 322.708L229.525, 325.212L230.034, 327.436L230.3, 329.5L230.246, 330.459L229.947, 331.32L229.418, 332.1L228.675, 332.813L226.616, 334.098L223.9, 335.3L221.792, 336.291L219.782, 337.459L217.881, 338.798L216.1, 340.3L213.958, 342.117L211.848, 343.733L209.717, 345.136L207.512, 346.312L205.181, 347.25L202.67, 347.936L199.928, 348.357L196.9, 348.5L195.714, 348.498L194.687, 348.413L193.792, 348.12L193, 347.5L192.273, 346.525L191.732, 345.465L191.219, 343.187L191.471, 340.865L191.888, 339.751L192.5, 338.7L194.202, 336.748L196.2, 335.1L198.395, 333.497L200.381, 331.679L202.145, 329.665L203.676, 327.478L204.96, 325.137L205.983, 322.663L206.734, 320.077L207.2, 317.4L207.3, 316.775L207.4, 316.3"/><path stroke="black" fill="none" stroke-width="1" d="M223.901, 335.3L221.792, 336.291L219.782, 337.459L217.881, 338.798L216.1, 340.3L214.008, 342.117L212.017, 343.733L210.034, 345.136L207.963, 346.312L205.709, 347.25L203.177, 347.936L200.273, 348.357L196.901, 348.5L195.339, 348.439L194.266, 348.262L193.642, 347.976L193.427, 347.589L193.584, 347.109L194.072, 346.544L194.853, 345.9L195.888, 345.188L198.561, 343.583L201.78, 341.792L205.23, 339.877L208.6, 337.9L211.631, 336.013L214.308, 334.334L216.677, 332.876L218.788, 331.65L220.687, 330.668L222.423, 329.941L224.045, 329.481L225.6, 329.3L226.984, 329.344L228.066, 329.536L228.852, 329.857L229.35, 330.288L229.567, 330.807L229.509, 331.395L229.185, 332.033L228.6, 332.7L226.346, 334.173L223.901, 335.3"/><path stroke="black" fill="none" stroke-width="1" d="M205.2, 310.2L209.222, 309.593L213.185, 309.431L216.974, 309.616L220.475, 310.05L223.574, 310.634L226.154, 311.269L228.101, 311.857L228.802, 312.103L229.301, 312.3L230.003, 312.691L230.529, 313.177L230.872, 313.74L231.025, 314.362L230.982, 315.028L230.735, 315.717L230.276, 316.414L229.6, 317.1L229.914, 318.578L229.859, 319.276L229.563, 319.925L228.953, 320.508L227.956, 321.009L226.496, 321.412L224.501, 321.7L220.03, 321.738L215.585, 321.348L211.199, 320.534L206.901, 319.3L205.151, 318.372L204.552, 317.855L204.151, 317.275L203.955, 316.611L203.975, 315.841L204.22, 314.944L204.7, 313.9L204.23, 312.647L204.087, 311.525L204.377, 310.666L205.2, 310.2"/><path stroke="black" fill="none" stroke-width="1" d="M250.301, 205.8L250.301, 220.09L224.1, 220.09L224.1, 205.8L250.301, 205.8"/><path stroke="black" fill="none" stroke-width="1" d="M303.6, 206.1L303.971, 208.472L303.93, 210.819L303.499, 213.096L302.699, 215.255L301.551, 217.253L300.078, 219.041L298.301, 220.575L296.241, 221.808L293.3, 222.848L290.2, 223.2L261.6, 223.2L248.2, 230.7L248.2, 230.3L246.041, 230.17L244.169, 229.638L243.353, 229.153L242.625, 228.486L241.989, 227.611L241.451, 226.5L241.016, 225.127L240.689, 223.464L240.476, 221.485L240.382, 219.162L240.412, 216.47L240.572, 213.38L240.867, 209.865L241.301, 205.9L241.026, 204.508L240.658, 202.719L240.207, 200.569L239.684, 198.094L239.098, 195.331L238.459, 192.316L237.064, 185.675L235.579, 178.463L234.087, 170.969L232.667, 163.484L231.401, 156.3L230.983, 153.253L230.781, 150.436L230.799, 147.828L231.038, 145.408L231.503, 143.155L232.196, 141.047L233.119, 139.065L234.276, 137.187L235.67, 135.393L237.303, 133.66L239.179, 131.969L241.301, 130.298L243.671, 128.627L246.292, 126.934L249.168, 125.199L252.301, 123.4L253.82, 119.545L255.576, 116.22L257.528, 113.407L259.637, 111.091L261.862, 109.253L264.164, 107.879L266.503, 106.95L268.838, 106.45L271.13, 106.363L273.338, 106.671L275.424, 107.359L277.345, 108.409L279.064, 109.805L280.539, 111.53L281.731, 113.567L282.6, 115.9L282.971, 117.261L283.39, 118.859L283.852, 120.679L284.355, 122.708L285.475, 127.335L286.725, 132.623L288.083, 138.46L289.526, 144.73L291.031, 151.319L292.575, 158.113L295.69, 171.856L297.215, 178.577L298.688, 185.045L300.085, 191.146L301.385, 196.765L302.564, 201.788L303.102, 204.04L303.6, 206.1"/><path stroke="black" fill="none" stroke-width="1" d="M249.901, 237.8L249.2, 235.1L248.2, 230.8L261.601, 223.3L307.501, 223.3L308.525, 228.438L309.409, 233.316L310.136, 237.879L310.689, 242.075L311.049, 245.849L311.199, 249.147L311.123, 251.915L310.801, 254.1L309.897, 256.763L308.466, 259.428L306.515, 261.986L304.051, 264.325L301.08, 266.336L297.61, 267.909L293.647, 268.934L291.484, 269.206L289.2, 269.3L238.7, 269.3L238.665, 269.549L238.564, 270.265L238.405, 271.396L238.195, 272.892L237.942, 274.705L237.651, 276.783L236.988, 281.537L235.537, 292.039L234.863, 296.987L234.565, 299.21L234.301, 301.2L233.834, 304.611L233.356, 307.448L232.791, 309.759L232.064, 311.588L231.097, 312.98L229.815, 313.983L228.142, 314.641L226.001, 315L221.22, 315.21L216.47, 314.808L211.811, 313.802L207.301, 312.2L206.321, 311.61L205.546, 310.815L204.959, 309.817L204.545, 308.617L204.288, 307.218L204.172, 305.621L204.182, 303.826L204.301, 301.838L204.514, 299.655L204.805, 297.281L205.557, 291.964L206.431, 285.899L207.301, 279.1L207.689, 275.665L208.037, 272.512L208.353, 269.626L208.648, 266.992L208.933, 264.594L209.217, 262.417L209.826, 258.663L210.557, 255.607L211.492, 253.127L212.712, 251.099L214.301, 249.4L216.432, 247.961L219.184, 246.772L222.491, 245.804L226.288, 245.025L230.513, 244.406L235.099, 243.916L239.984, 243.524L245.101, 243.2L244.101, 240.7L244.019, 240.011L244.222, 239.376L244.665, 238.879L245.301, 238.6L249.901, 237.8"/><path stroke="black" fill="none" stroke-width="1" d="M292, 223.5L293.656, 232.577L294.285, 236.882L294.75, 241.025L295.027, 244.999L295.094, 248.798L294.926, 252.417L294.5, 255.85L293.793, 259.09L292.781, 262.133L291.441, 264.971L289.75, 267.6L287.684, 270.013L285.219, 272.205L282.332, 274.169L279, 275.9"/><path stroke="black" fill="none" stroke-width="1" d="M210.4, 319.4L210.373, 318.809L210.425, 317.936L210.675, 315.787L210.826, 314.735L210.963, 313.845L211.062, 313.23L211.1, 313L210.959, 309.311L211.1, 305.109L211.466, 300.565L212, 295.85L212.647, 291.135L213.35, 286.591L214.053, 282.389L214.7, 278.7L215.424, 274.68L216.048, 271.182L216.614, 268.167L217.161, 265.597L217.731, 263.434L218.365, 261.639L219.104, 260.174L219.987, 259L221.058, 258.08L222.355, 257.374L223.921, 256.844L225.795, 256.453L228.02, 256.161L230.635, 255.931L233.681, 255.723L237.2, 255.5L241.24, 255.239L244.791, 254.998L247.878, 254.749L250.528, 254.464L252.767, 254.114L254.62, 253.67L256.114, 253.104L257.275, 252.388L258.129, 251.492L258.702, 250.388L259.02, 249.047L259.109, 247.442L258.996, 245.543L258.706, 243.322L258.265, 240.751L257.7, 237.8L256.653, 232.452L255.695, 227.437L254.844, 222.873L254.113, 218.875L253.517, 215.562L253.276, 214.198L253.073, 213.05L252.913, 212.131L252.796, 211.457L252.724, 211.042L252.7, 210.9"/><path stroke="black" fill="none" stroke-width="1" d="M238.7, 269.3L236.685, 268.888L234.804, 268.309L231.439, 266.755L228.601, 264.851L226.288, 262.813L224.494, 260.854L223.217, 259.189L222.772, 258.534L222.454, 258.033L222.263, 257.713L222.2, 257.6"/><path stroke="black" fill="none" stroke-width="1" d="M238.7, 269.3L237.04, 268.207L235.509, 266.964L232.865, 264.074L230.839, 260.721L230.079, 258.901L229.5, 257"/><path stroke="black" fill="none" stroke-width="1" d="M303.6, 206.1L305.238, 213.125L306.801, 220L265.801, 222.9L248.1, 230.4L245.941, 230.27L244.069, 229.737L243.253, 229.253L242.524, 228.586L241.888, 227.711L241.35, 226.6L240.915, 225.227L240.588, 223.564L240.375, 221.585L240.281, 219.262L240.311, 216.57L240.471, 213.48L240.766, 209.965L241.2, 206L240.934, 204.692L240.591, 203.037L240.177, 201.064L239.701, 198.8L239.167, 196.273L238.585, 193.512L237.301, 187.4L242.401, 180.5L252.401, 167.1L269.7, 154.9L292.1, 156.6L295.345, 170.705L296.943, 177.632L298.487, 184.313L299.953, 190.622L301.311, 196.439L302.536, 201.639L303.09, 203.97L303.6, 206.1"/><path stroke="black" fill="none" stroke-width="1" d="M257.77, 194.842L257.233, 197.551L256.586, 200.05L255.852, 202.286L255.057, 204.208L254.223, 205.763L253.376, 206.901L252.539, 207.569L251.738, 207.716L251.029, 207.314L250.459, 206.408L250.033, 205.055L249.758, 203.312L249.638, 201.235L249.681, 198.882L249.892, 196.31L250.276, 193.575L250.813, 190.865L251.46, 188.366L252.193, 186.13L252.989, 184.208L253.822, 182.653L254.669, 181.515L255.506, 180.847L256.307, 180.7L257.016, 181.102L257.586, 182.008L258.012, 183.361L258.288, 185.105L258.407, 187.181L258.364, 189.534L258.154, 192.107L257.77, 194.842"/><path stroke="black" fill="none" stroke-width="1" d="M244.7, 176.3L246.263, 173.625L247.901, 171.1L250.012, 168.181L252.106, 165.531L254.185, 163.137L256.249, 160.989L258.299, 159.076L260.334, 157.387L262.355, 155.911L264.363, 154.637L268.341, 152.652L272.27, 151.342L276.156, 150.621L280, 150.4L292.7, 150.4L293.241, 150.546L293.658, 150.92L293.859, 151.443L293.801, 152L292.1, 156.6L288.586, 156.597L285.335, 156.607L282.316, 156.657L279.495, 156.772L274.323, 157.307L269.563, 158.425L267.256, 159.27L264.956, 160.34L262.631, 161.663L260.248, 163.266L257.776, 165.174L255.182, 167.414L252.434, 170.014L249.5, 173L242.401, 180.5L244.7, 176.3"/><path stroke="black" fill="none" stroke-width="1" d="M306.801, 220L308.401, 227.8L270, 227.8L266.28, 227.904L263.023, 228.223L260.158, 228.765L257.612, 229.538L255.315, 230.549L253.195, 231.808L251.181, 233.322L249.2, 235.1L248.1, 230.4L249.806, 228.503L251.509, 226.852L253.208, 225.43L254.898, 224.219L258.248, 222.363L261.538, 221.15L264.747, 220.443L267.858, 220.106L270.849, 220.004L273.7, 220L306.801, 220"/><path stroke="black" fill="none" stroke-width="1" d="M249.5, 173.6L250.86, 173.426L252.096, 173.422L254.217, 173.884L255.914, 174.904L257.238, 176.4L258.237, 178.289L258.964, 180.491L259.468, 182.921L259.8, 185.5L259.848, 188.079L259.506, 190.553L258.837, 192.9L257.9, 195.1L256.757, 197.131L255.469, 198.972L254.096, 200.602L252.7, 202L251.139, 203.393L249.192, 205.023L246.803, 206.896L243.913, 209.012L240.465, 211.378L236.402, 213.995L231.666, 216.868L229.028, 218.401L226.2, 220L218.7, 220L216.116, 219.671L213.744, 218.701L211.7, 217.156L210.1, 215.1L209.299, 213.387L208.847, 211.602L208.734, 209.793L208.95, 208.005L209.484, 206.285L210.327, 204.68L211.469, 203.236L212.9, 202L230.9, 188.9L232.95, 186.904L234.5, 184.5L235.731, 182.301L237.167, 180.35L238.798, 178.643L240.613, 177.175L242.601, 175.941L244.752, 174.938L247.055, 174.159L249.5, 173.6"/><path stroke="black" fill="none" stroke-width="1" d="M255.1, 121.9L250.3, 128.2L250.098, 128.071L249.531, 127.709L248.655, 127.156L247.525, 126.45L244.731, 124.741L241.6, 122.9L240.12, 122.075L238.836, 121.381L237.756, 120.791L236.887, 120.275L236.24, 119.806L235.82, 119.356L235.638, 118.897L235.7, 118.4L235.975, 117.885L236.473, 117.431L237.27, 117.099L238.438, 116.95L240.051, 117.045L242.183, 117.444L244.908, 118.209L246.516, 118.747L248.3, 119.4L247.611, 117.422L247.074, 115.682L246.675, 114.169L246.402, 112.87L246.242, 111.777L246.182, 110.876L246.313, 109.612L246.692, 108.991L247.217, 108.923L247.787, 109.322L248.3, 110.1L248.838, 111.161L249.531, 112.436L251.25, 115.438L253.194, 118.72L255.1, 121.9"/><path stroke="black" fill="none" stroke-width="1" d="M265.5, 122.2L264.13, 123.528L262.712, 124.35L261.464, 124.647L260.6, 124.4L260.102, 123.783L259.912, 122.987L260.192, 122.023L261.1, 120.9L263.2, 118.6L264.255, 117.394L265.188, 116.75L266.027, 116.631L266.801, 117L267.259, 117.855L267.163, 119.113L266.561, 120.614L265.5, 122.2"/><path stroke="black" fill="none" stroke-width="1" d="M282.5, 116L282.365, 115.939L281.979, 115.762L281.368, 115.48L280.561, 115.105L278.466, 114.117L275.913, 112.887L270.308, 110.052L267.695, 108.621L265.5, 107.3L263.709, 105.998L262.181, 104.606L260.944, 103.187L260.025, 101.8L259.453, 100.507L259.256, 99.369L259.463, 98.446L260.1, 97.8L261.054, 97.512L262.166, 97.595L263.394, 98.009L264.7, 98.712L266.044, 99.664L267.385, 100.823L269.901, 103.6L269.923, 101.192L270.06, 99.259L270.305, 97.754L270.651, 96.625L271.09, 95.825L271.617, 95.303L272.222, 95.011L272.901, 94.9L273.537, 94.995L274.032, 95.342L274.405, 95.921L274.675, 96.713L274.981, 98.852L275.1, 101.6L275.169, 102.994L275.314, 104.205L275.913, 106.237L277.056, 108.027L277.88, 108.932L278.901, 109.9L280.144, 111.204L281.169, 112.674L281.959, 114.281L282.5, 116"/><path stroke="black" fill="none" stroke-width="1" d="M238.801, 149.2L237.778, 149.089L236.842, 148.759L236.041, 148.219L235.426, 147.475L235.045, 146.534L234.948, 145.403L235.183, 144.089L235.801, 142.6L236.843, 141.03L238.252, 139.491L239.926, 138.012L241.763, 136.625L245.517, 134.247L247.231, 133.317L248.7, 132.6L249.924, 132.143L250.975, 131.944L251.857, 131.96L252.575, 132.15L253.538, 132.881L253.901, 133.8L253.841, 134.825L253.426, 136.15L252.522, 137.85L251.847, 138.864L251, 140L249.967, 141.314L248.756, 142.787L245.875, 145.8L244.243, 147.133L242.507, 148.212L240.687, 148.936L238.801, 149.2"/><path stroke="black" fill="none" stroke-width="1" d="M241, 148.9L239.301, 149.2L236.901, 141L238.301, 139.5L241, 148.9"/><path stroke="black" fill="none" stroke-width="1" d="M247.2, 144.5L245.801, 145.9L243, 135.8L244.5, 134.8L247.2, 144.5"/><path stroke="black" fill="none" stroke-width="1" d="M252.801, 137.5L251.5, 139.3L249.5, 132.3L251.2, 132L252.801, 137.5"/><path stroke="black" fill="none" stroke-width="1" d="M250.6, 131.1L256.301, 133.4"/><path stroke="black" fill="none" stroke-width="1" d="M248.1, 242.5L259.1, 255.9"/><path stroke="black" fill="none" stroke-width="1" d="M256.7, 238.5L252.801, 238.5L251.6, 233L250.5, 227.9L253.7, 225.1L255, 230.7L256.7, 238.5"/><path stroke="black" fill="none" stroke-width="1" d="M274, 233.2L270.1, 233.2L268.901, 227.8L267.301, 220.2L271.2, 220.2L272.801, 227.9L274, 233.2"/><path stroke="black" fill="none" stroke-width="1" d="M305.901, 233L302, 233L300.801, 227.8L299.2, 220L303.1, 220L304.7, 227.8L305.901, 233"/><path stroke="black" fill="none" stroke-width="1" d="M295.2, 169.8L293.689, 168.784L292.048, 168.021L290.308, 167.522L288.501, 167.3L286.658, 167.529L285.026, 168.173L283.6, 169.172L282.376, 170.462L281.349, 171.983L280.514, 173.67L279.401, 177.3L278.962, 178.418L278.196, 179.301L277.182, 179.884L276.001, 180.1L275.301, 180.1L274.038, 179.59L273.075, 178.627L272.57, 177.362L272.601, 176L273.51, 172.602L274.79, 169.555L276.41, 166.889L278.339, 164.637L280.543, 162.831L282.993, 161.502L285.656, 160.681L288.501, 160.4L290.403, 160.751L292.038, 161.688L293.28, 163.105L294.001, 164.9L295.2, 169.8"/><path stroke="black" fill="none" stroke-width="1" d="M303.6, 206.1L303.796, 207.509L303.702, 208.884L303.339, 210.189L302.731, 211.387L301.9, 212.443L300.87, 213.321L299.662, 213.985L298.301, 214.4L295.801, 214.6L293.657, 214.442L291.512, 213.977L289.383, 213.213L287.288, 212.163L285.245, 210.835L283.27, 209.242L281.383, 207.394L279.6, 205.3L279.011, 204.068L278.936, 202.705L279.389, 201.417L280.301, 200.4L281.528, 199.778L282.902, 199.692L284.197, 200.158L285.2, 201.1L287.714, 203.861L290.388, 205.937L291.752, 206.693L293.118, 207.245L294.472, 207.585L295.801, 207.7L297.049, 207.609L298.176, 207.347L300.101, 206.375L301.651, 204.916L302.901, 203.1L303.6, 206.1"/><path stroke="black" fill="none" stroke-width="1" d="M296.9, 177.5L298.175, 182.763L299.301, 187.8L296.6, 195.1L295.807, 196.387L294.871, 197.06L293.793, 197.378L292.671, 197.329L291.6, 196.9L290.33, 195.797L289.524, 194.371L289.231, 192.761L289.5, 191.1L293.7, 179.8L294.195, 178.864L294.933, 178.14L295.856, 177.671L296.9, 177.5"/><path stroke="black" fill="none" stroke-width="1" d="M291.6, 196.9L290.33, 195.797L289.524, 194.371L289.231, 192.76L289.5, 191.1L290.7, 188L291.625, 186.56L292.686, 185.804L293.902, 185.433L295.174, 185.46L296.4, 185.9L297.489, 186.823L298.182, 188.026L298.433, 189.392L298.2, 190.8L296.6, 195.1L295.808, 196.388L294.534, 197.203L293.032, 197.387L291.6, 196.9"/><path stroke="black" fill="none" stroke-width="1" d="M238.6, 212.9L236.127, 214.45L233.524, 215.755L230.809, 216.808L228, 217.6"/><path stroke="black" fill="none" stroke-width="1" d="M246.972, 355L245.3, 353.775L242.531, 350.933L240.281, 347.672L238.641, 344.068L237.7, 340.2L237.515, 338.271L237.52, 336.456L237.708, 334.752L238.075, 333.158L239.325, 330.284L241.226, 327.813L243.736, 325.721L246.813, 323.986L250.416, 322.587L254.501, 321.5L256.501, 321L257.705, 320.623L258.785, 320.04L259.722, 319.277L260.497, 318.36L261.091, 317.317L261.485, 316.175L261.662, 314.96L261.601, 313.7L261.35, 312.506L260.909, 311.397L260.297, 310.389L259.533, 309.501L258.632, 308.751L257.615, 308.155L256.499, 307.732L255.301, 307.5L252.401, 307.2L247.953, 306.437L243.928, 305.142L240.355, 303.349L237.264, 301.088L234.683, 298.39L232.643, 295.289L231.173, 291.815L230.301, 288L230.123, 286.043L230.144, 284.153L230.357, 282.338L230.753, 280.606L232.057, 277.425L233.988, 274.675L236.478, 272.422L239.456, 270.731L242.853, 269.669L244.688, 269.394L246.601, 269.3L264.101, 269.3L268.061, 269.69L271.857, 270.809L275.4, 272.58L278.601, 274.925L281.37, 277.767L283.619, 281.028L285.259, 284.632L286.2, 288.5L293.601, 340.7L293.763, 342.607L293.729, 344.461L293.107, 347.967L291.801, 351.143L289.876, 353.912L288.697, 355"/><path stroke="black" fill="none" stroke-width="1" d="M267.272, 355L265.6, 353.775L262.83, 350.933L260.581, 347.672L258.941, 344.068L258, 340.2L257.813, 337.198L258.173, 334.289L259.04, 331.533L260.374, 328.992L262.137, 326.727L264.288, 324.8L266.789, 323.27L269.6, 322.2L270.639, 321.814L271.563, 321.258L273.013, 319.723L273.832, 317.777L273.967, 316.706L273.9, 315.6L273.4, 311.8L272.844, 310.052L271.82, 308.576L270.411, 307.463L268.7, 306.8L265.363, 305.824L262.216, 304.355L259.317, 302.442L256.725, 300.138L254.499, 297.49L252.697, 294.552L251.378, 291.371L250.6, 288L250.501, 284.555L251.136, 281.197L252.444, 278.04L254.363, 275.2L256.829, 272.791L259.783, 270.928L261.422, 270.237L263.16, 269.726L264.989, 269.409L266.9, 269.3L284.4, 269.3L288.36, 269.69L292.156, 270.809L295.699, 272.58L298.9, 274.925L301.67, 277.767L303.919, 281.028L305.559, 284.632L306.5, 288.5L313.9, 340.7L314.062, 342.607L314.028, 344.461L313.406, 347.967L312.1, 351.143L310.175, 353.912L308.996, 355"/><path stroke="black" fill="none" stroke-width="1" d="M293.2, 286.9L293.093, 288.394L292.37, 289.705L291.166, 290.596L289.7, 290.9L271.301, 290.9L269.668, 290.567L268.284, 289.725L267.257, 288.47L266.7, 286.9L266.7, 286.3L266.769, 284.794L267.458, 283.529L268.618, 282.674L270.1, 282.4L288.6, 282.4L290.213, 282.72L291.589, 283.538L292.62, 284.761L293.2, 286.3L293.2, 286.9"/><path stroke="black" fill="none" stroke-width="1" d="M285.2, 294.3L285.136, 295.786L284.444, 297.103L283.256, 297.997L281.801, 298.3L281.301, 298.3L279.668, 297.967L278.284, 297.125L277.257, 295.87L276.7, 294.3L274.501, 278.9L274.607, 277.42L275.332, 276.125L276.541, 275.265L278.001, 275L278.501, 275L280.113, 275.321L281.489, 276.138L282.52, 277.362L283.1, 278.9L285.2, 294.3"/><path stroke="black" fill="none" stroke-width="1" d="M287.501, 317.5L287.342, 318.398L286.693, 319.04L286.1, 319.2L285.801, 319.2L285.13, 319.035L284.563, 318.672L284.139, 318.148L283.901, 317.5L283.001, 311.1L283.053, 310.463L283.364, 309.937L283.868, 309.593L284.501, 309.5L284.7, 309.5L285.374, 309.614L285.948, 309.946L286.373, 310.456L286.6, 311.1L287.501, 317.5"/><path stroke="black" fill="none" stroke-width="1" d="M287.1, 337.7L285.487, 337.38L284.111, 336.563L283.08, 335.339L282.501, 333.8L282.501, 333.2L282.56, 331.727L283.257, 330.428L284.45, 329.561L285.901, 329.3L286.401, 329.3L287.996, 329.605L289.364, 330.398L290.4, 331.592L291.001, 333.1L291.001, 333.8L290.887, 335.312L290.169, 336.574L288.992, 337.424L287.501, 337.7L287.1, 337.7"/><path stroke="black" fill="none" stroke-width="1" d="M289.7, 352.6L289.2, 352.6L287.576, 352.3L286.192, 351.485L285.162, 350.253L284.6, 348.7L284.6, 347.8L284.677, 346.715L285.08, 345.732L285.767, 344.921L286.695, 344.353L288.1, 344.1L288.6, 344.1L290.195, 344.405L291.563, 345.198L292.599, 346.392L293.2, 347.9L293.2, 348.6L293.124, 350.145L292.414, 351.443L291.222, 352.319L289.7, 352.6"/><path stroke="black" fill="none" stroke-width="1" d="M287.6, 337.7L287.1, 337.7L285.487, 337.38L284.111, 336.563L283.08, 335.339L282.501, 333.8L282.501, 333.2L282.56, 331.727L283.257, 330.428L284.45, 329.561L285.901, 329.3L286.401, 329.3L287.996, 329.605L289.364, 330.398L290.4, 331.592L291.001, 333.1L291.001, 333.8L290.9, 335.255L290.2, 336.534L289.028, 337.402L287.6, 337.7"/><path stroke="black" fill="none" stroke-width="1" d="M297.1, 345.1L295.487, 344.78L294.111, 343.963L293.08, 342.739L292.501, 341.2L292.501, 340.6L292.56, 339.127L293.257, 337.828L294.45, 336.961L295.901, 336.7L296.401, 336.7L297.996, 337.005L299.364, 337.798L300.4, 338.992L301.001, 340.5L301.001, 341.2L300.932, 342.706L300.243, 343.972L299.083, 344.827L297.6, 345.1L297.1, 345.1"/><path stroke="black" fill="none" stroke-width="1" d="M297.6, 345.1L297.1, 345.1L295.487, 344.78L294.111, 343.963L293.08, 342.739L292.501, 341.2L292.501, 340.6L292.56, 339.127L293.257, 337.828L294.45, 336.961L295.901, 336.7L296.401, 336.7L297.996, 337.005L299.364, 337.798L300.4, 338.992L301.001, 340.5L301.001, 341.2L300.932, 342.706L300.243, 343.972L299.083, 344.827L297.6, 345.1"/><path stroke="black" fill="none" stroke-width="1" d="M279.7, 345.3L279.1, 345.3L277.487, 344.96L276.126, 344.115L275.126, 342.862L274.6, 341.3L274.6, 340.4L274.742, 338.961L275.446, 337.766L276.578, 336.963L278, 336.7L278.6, 336.7L280.182, 337.044L281.528, 337.868L282.534, 339.083L283.1, 340.6L283.1, 341.2L283.075, 342.717L282.391, 344.071L281.186, 344.993L279.7, 345.3"/><path stroke="black" fill="none" stroke-width="1" d="M117.4, 339.4L107.7, 334L113.554, 324.687L119.692, 315.562L126.109, 306.631L132.8, 297.9L119.189, 302.923L112.225, 305.376L105.138, 307.637L97.914, 309.594L90.542, 311.133L83.008, 312.139L75.3, 312.5L40.5, 312.5L39.192, 309.223L38.363, 305.713L37.927, 301.77L37.83, 299.576L37.8, 297.2L80.3, 281.7L96.4, 285L96.9, 289.6L108.467, 286.6L119.762, 283.6L125.165, 282.17L130.327, 280.825L135.191, 279.592L139.7, 278.5L142.305, 277.986L144.68, 277.715L146.819, 277.678L148.717, 277.866L150.368, 278.27L151.767, 278.883L152.909, 279.696L153.788, 280.7L154.398, 281.887L154.734, 283.248L154.791, 284.775L154.564, 286.459L154.047, 288.293L153.234, 290.266L152.12, 292.371L150.7, 294.6L144.618, 303.301L138.662, 311.556L135.798, 315.448L133.045, 319.146L130.428, 322.623L127.975, 325.85L125.712, 328.801L123.665, 331.448L121.86, 333.763L120.325, 335.719L119.085, 337.288L118.166, 338.443L117.596, 339.156L117.4, 339.4"/><path stroke="black" fill="none" stroke-width="1" d="M50.1, 293.2L50.1, 292.7L51.8, 292.1L51.9, 292.4L51.9, 293.2L51.887, 297.434L52.002, 301.081L52.362, 304.176L53.087, 306.75L54.296, 308.837L55.118, 309.708L56.105, 310.469L57.272, 311.125L58.633, 311.679L60.205, 312.136L62, 312.5L57.8, 312.5L55.871, 312.133L54.2, 311.1L52.847, 309.703L51.83, 308.064L51.101, 306.183L50.612, 304.063L50.316, 301.703L50.164, 299.105L50.108, 296.27L50.1, 293.2"/><path stroke="black" fill="none" stroke-width="1" d="M86.9, 286.4L86.737, 289.415L86.534, 292.092L86.383, 294.438L86.375, 296.463L86.601, 298.172L87.153, 299.577L88.122, 300.683L89.6, 301.5L90.613, 301.742L91.885, 301.801L93.405, 301.687L95.164, 301.412L97.154, 300.988L99.365, 300.424L101.787, 299.733L104.413, 298.925L107.231, 298.012L110.234, 297.004L116.755, 294.75L123.901, 292.252L131.6, 289.6L135.315, 288.381L138.529, 287.417L141.272, 286.694L143.572, 286.198L145.458, 285.918L146.96, 285.84L148.106, 285.951L148.925, 286.237L149.447, 286.687L149.7, 287.287L149.713, 288.023L149.516, 288.883L148.605, 290.922L147.2, 293.3L146.345, 294.645L145.354, 296.166L144.227, 297.862L142.966, 299.73L141.569, 301.768L140.039, 303.975L138.374, 306.349L136.575, 308.887L134.643, 311.589L132.577, 314.451L130.378, 317.473L128.047, 320.652L125.583, 323.986L122.987, 327.473L117.4, 334.9"/><path stroke="black" fill="none" stroke-width="1" d="M55, 237.8L49.862, 229.382L45.209, 220.695L41.052, 211.761L37.4, 202.6L36.812, 199.427L36.981, 196.247L37.885, 193.194L39.5, 190.4L42.347, 187.289L45.42, 184.544L48.73, 182.145L52.287, 180.075L56.103, 178.314L60.186, 176.844L64.548, 175.645L69.2, 174.7L70.241, 174.686L71.257, 174.87L72.219, 175.244L73.1, 175.8L75.827, 178.313L78.316, 180.863L80.579, 183.447L82.631, 186.061L86.15, 191.369L88.975, 196.763L91.209, 202.217L92.956, 207.708L94.319, 213.21L95.4, 218.7L95.337, 219.966L94.967, 221.158L94.313, 222.221L93.4, 223.1L90.753, 224.679L88.439, 225.978L86.465, 227.02L84.838, 227.825L83.561, 228.414L82.642, 228.809L82.087, 229.031L81.9, 229.1L83.4, 240.2L55, 237.8"/><path stroke="black" fill="none" stroke-width="1" d="M69.5, 200.5L80.7, 201.873L91.8, 203.9L95.9, 205L96.299, 205.234L96.53, 205.635L96.53, 206.098L96.3, 206.5L95.4, 207.3L97, 213.5L97.27, 214.969L97.29, 216.432L97.07, 217.859L96.624, 219.224L95.962, 220.498L95.096, 221.654L94.038, 222.664L92.8, 223.5L89.1, 225.6L69.5, 200.5"/><path stroke="black" fill="none" stroke-width="1" d="M72.705, 207.868L71.924, 208.227L71.027, 208.32L70.047, 208.161L69.013, 207.766L67.957, 207.149L66.911, 206.325L64.97, 204.12L63.57, 201.536L63.159, 200.27L62.944, 199.066L62.93, 197.959L63.12, 196.984L63.516, 196.175L64.123, 195.565L64.905, 195.206L65.801, 195.113L66.782, 195.272L67.816, 195.668L68.872, 196.285L69.918, 197.108L71.859, 199.314L73.259, 201.897L73.67, 203.163L73.884, 204.367L73.899, 205.474L73.709, 206.449L73.312, 207.259L72.705, 207.868"/><path stroke="black" fill="none" stroke-width="1" d="M84.5, 194L85.25, 194.789L85.7, 195.588L85.85, 196.292L85.7, 196.8L85.345, 197.105L84.887, 197.213L84.336, 197.039L83.7, 196.5L82.4, 195.2L81.725, 194.605L81.35, 194.038L81.275, 193.527L81.5, 193.1L82.011, 192.875L82.738, 192.95L83.595, 193.325L84.5, 194"/><path stroke="black" fill="none" stroke-width="1" d="M44.8, 185.1L44.537, 182.204L44.347, 179.545L44.228, 177.106L44.178, 174.875L44.276, 170.974L44.625, 167.725L45.208, 165.01L46.009, 162.713L47.012, 160.715L48.2, 158.9L49.407, 157.421L50.469, 156.498L51.371, 156.117L52.1, 156.263L52.641, 156.919L52.981, 158.07L53.105, 159.703L53, 161.8L52.752, 169.102L53.1, 176.4L55.567, 170.835L58.519, 165.526L61.937, 160.504L65.8, 155.8L67.107, 154.436L68.593, 153.286L70.233, 152.369L72, 151.7L72.847, 151.567L73.58, 151.608L74.188, 151.811L74.662, 152.163L74.991, 152.65L75.164, 153.261L75.171, 153.982L75, 154.8L74.464, 156.375L73.731, 158.197L72.764, 160.295L71.525, 162.7L69.977, 165.443L68.081, 168.553L65.802, 172.062L63.1, 176L63.9, 180.4L44.8, 185.1"/><path stroke="black" fill="none" stroke-width="1" d="M91.5, 247.3L92.929, 248.109L94.048, 249.4L94.887, 251.099L95.477, 253.133L95.846, 255.427L96.026, 257.908L95.938, 263.137L95.45, 268.231L95.132, 270.542L94.805, 272.598L94.498, 274.326L94.241, 275.651L94.065, 276.501L94, 276.8L95.2, 277.7L96.457, 279.06L97.167, 280.717L97.294, 282.515L96.8, 284.3L96.4, 285L92.255, 285.167L90.285, 285.459L88.287, 285.963L86.192, 286.733L83.927, 287.827L81.42, 289.297L78.6, 291.2L75.724, 293.094L73.05, 294.542L70.507, 295.603L68.025, 296.338L65.534, 296.804L62.962, 297.064L60.241, 297.176L57.3, 297.2L37.8, 297.2L37.8, 290.6L35.37, 289.484L33.53, 288.306L32.24, 287.063L31.462, 285.75L31.158, 284.362L31.289, 282.894L31.816, 281.341L32.7, 279.7L33.97, 277.592L35.438, 275.288L36.961, 272.964L38.4, 270.8L39.278, 269.157L39.811, 267.39L39.988, 265.553L39.8, 263.7L39.328, 260.642L39.078, 257.931L39.002, 255.586L39.05, 253.625L39.173, 252.067L39.322, 250.931L39.447, 250.236L39.5, 250L60.7, 244.3L87.6, 243.2L91.5, 247.3"/><path stroke="black" fill="none" stroke-width="1" d="M90.873, 271.794L89.885, 271.839L88.86, 271.489L87.829, 270.779L86.821, 269.744L85.865, 268.42L84.99, 266.841L84.226, 265.043L83.601, 263.061L83.165, 261.029L82.942, 259.089L82.923, 257.284L83.1, 255.661L83.466, 254.263L84.011, 253.137L84.729, 252.326L85.611, 251.877L86.6, 251.832L87.624, 252.182L88.655, 252.892L89.663, 253.927L90.619, 255.251L91.494, 256.829L92.258, 258.627L92.883, 260.609L93.319, 262.641L93.542, 264.582L93.561, 266.386L93.384, 268.01L93.018, 269.407L92.473, 270.534L91.755, 271.344L90.873, 271.794"/><path stroke="black" fill="none" stroke-width="1" d="M113.606, 355L103.9, 334.6M103.9, 334.6L104.916, 333.594L106.1, 332.498L108.6, 330.313L109.728, 329.361L110.65, 328.595L111.272, 328.085L111.5, 327.9L112.808, 327.944L114.223, 328.136L115.692, 328.57L117.163, 329.337L118.581, 330.532L119.895, 332.245L121.053, 334.571L121.556, 335.991L122, 337.6L124.7, 348.3L126.514, 348.668L128.101, 349.059L129.475, 349.474L130.648, 349.911L132.443, 350.854L133.588, 351.888L134.183, 353.01L134.333, 354.22L134.216, 355"/><path stroke="black" fill="none" stroke-width="1" d="M113.606, 355L103.9, 334.6L106.6, 332L107.641, 331.841L108.587, 332.005L109.441, 332.438L110.2, 333.088L111.438, 334.827L112.3, 336.8L115.611, 345.103L119.4, 353.2L120.453, 354.622L120.931, 355"/><path stroke="black" fill="none" stroke-width="1" d="M108.386, 355L107.798, 353.585L106.456, 350.481L105.292, 347.799L104.325, 345.45L103.573, 343.345L103.056, 341.394L102.792, 339.509L102.8, 337.6L103.128, 335.96L103.756, 334.908L104.6, 334.392L105.575, 334.362L106.597, 334.769L107.581, 335.561L108.444, 336.688L109.1, 338.1L109.668, 339.752L110.327, 341.605L111.938, 345.738L113.98, 350.152L116.5, 354.5L116.917, 355"/><path stroke="black" fill="none" stroke-width="1" d="M91.5, 247.3L107.3, 252.7L107.659, 248.735L108.131, 245.1L108.712, 241.757L109.394, 238.664L110.172, 235.783L111.041, 233.074L113.025, 228.013L115.3, 223.162L117.819, 218.205L120.534, 212.823L121.951, 209.874L123.4, 206.7L125.362, 202.325L127.061, 198.548L128.513, 195.332L129.738, 192.637L130.751, 190.426L131.57, 188.658L132.214, 187.296L132.7, 186.3L133.466, 185.408L134.6, 185.1L135.2, 185.1L136.108, 185.291L136.831, 185.813L137.289, 186.579L137.4, 187.5L136.546, 191.908L135.476, 196.266L134.193, 200.566L132.7, 204.8L134.346, 203.75L135.78, 203.002L137.033, 202.555L138.137, 202.413L139.125, 202.574L140.027, 203.042L140.874, 203.817L141.7, 204.9L143.572, 203.98L145.164, 203.331L146.515, 202.973L147.663, 202.925L148.646, 203.205L149.505, 203.831L150.276, 204.823L151, 206.2L151.612, 207.627L152.036, 208.806L152.288, 209.807L152.388, 210.7L152.195, 212.444L151.939, 213.435L151.6, 214.6L151.201, 215.735L150.752, 216.613L150.248, 217.265L149.688, 217.725L148.38, 218.2L146.8, 218.3L146.78, 222.485L146.714, 226.362L146.59, 229.962L146.395, 233.316L146.119, 236.455L145.751, 239.411L144.688, 244.9L143.113, 250.032L140.936, 255.059L139.592, 257.612L138.062, 260.232L136.336, 262.951L134.4, 265.8L132.684, 268.227L131.151, 270.307L129.77, 272.06L128.508, 273.505L127.333, 274.661L126.214, 275.547L125.118, 276.183L124.012, 276.588L122.866, 276.78L121.647, 276.779L120.323, 276.605L118.861, 276.277L117.23, 275.812L115.397, 275.232L113.332, 274.555L111, 273.8L105.358, 271.961L99.988, 270.112L95.123, 268.358L92.954, 267.548L91, 266.8L88.918, 265.825L87.083, 264.53L85.521, 262.958L84.258, 261.155L83.318, 259.163L82.729, 257.027L82.514, 254.792L82.7, 252.5L83.127, 251.001L83.737, 249.677L84.535, 248.561L85.525, 247.688L86.712, 247.091L88.1, 246.805L89.695, 246.863L91.5, 247.3"/><path stroke="black" fill="none" stroke-width="1" d="M91.5, 247.3L89.125, 246.554L86.936, 245.96L84.913, 245.513L83.038, 245.205L79.645, 244.981L76.6, 245.237L73.742, 245.92L70.912, 246.977L67.952, 248.354L64.7, 250L61.203, 251.547L57.67, 252.702L54.187, 253.521L50.837, 254.063L47.709, 254.384L44.886, 254.542L42.454, 254.595L40.5, 254.6L38.941, 254.48L37.589, 254.111L36.371, 253.477L35.213, 252.563L34.04, 251.353L32.78, 249.833L31.358, 247.987L29.7, 245.8L28.125, 243.613L27.017, 241.714L26.404, 240.004L26.312, 238.388L26.769, 236.766L27.802, 235.042L29.436, 233.119L31.7, 230.9L31.4, 229.274L31.253, 227.85L31.373, 226.632L31.875, 225.625L32.874, 224.834L34.484, 224.263L35.555, 224.061L36.821, 223.916L38.298, 223.829L40, 223.8L45.417, 223.907L50.598, 224.316L55.815, 225.161L58.521, 225.788L61.337, 226.575L64.298, 227.538L67.437, 228.693L70.787, 230.057L74.383, 231.647L78.258, 233.48L82.447, 235.571L86.983, 237.939L91.9, 240.6L92.938, 241.474L93.43, 242.383L93.605, 243.377L93.462, 244.375L93, 245.3L91.5, 247.3"/><path stroke="black" fill="none" stroke-width="1" d="M91.1, 202L91.8, 203.9L83.363, 202.556L79.439, 202.009L75.9, 201.55L72.886, 201.185L70.538, 200.919L69.657, 200.824L68.995, 200.755L68.571, 200.714L68.4, 200.7L67.855, 200.337L67.7, 199.7L67.968, 199.096L68.6, 198.9L68.747, 198.914L69.14, 198.955L69.762, 199.023L70.597, 199.117L72.836, 199.38L75.725, 199.737L79.129, 200.184L82.916, 200.714L91.1, 202"/><path stroke="black" fill="none" stroke-width="1" d="M68.8, 198.4L67.2, 201.1"/><path stroke="black" fill="none" stroke-width="1" d="M107.3, 252.7L113.9, 254.6"/><path stroke="black" fill="none" stroke-width="1" d="M50.4, 183.7L50, 184.8L49.68, 185.207L49.2, 185.4L48.9, 185.4L48.399, 184.964L48.4, 184.3L48.527, 183.926L48.816, 183.089L49.24, 181.879L49.775, 180.388L51.072, 176.917L52.5, 173.4L52.9, 173L53.1, 176.5L53.037, 177.08L52.805, 177.878L52.013, 179.875L51.089, 181.984L50.692, 182.923L50.4, 183.7"/><path stroke="black" fill="none" stroke-width="1" d="M143.8, 248L142.642, 251.307L141.2, 254.5L141.912, 252.199L142.341, 250.039L142.511, 248.051L142.45, 246.263L142.182, 244.704L141.734, 243.405L141.132, 242.394L140.4, 241.7L139.556, 241.268L138.62, 241.02L136.587, 241.062L134.536, 241.798L132.7, 243.2L132.164, 243.399L131.6, 243.3L131.266, 242.909L131.2, 242.4L131.222, 242.272L131.284, 241.938L131.498, 240.731L131.785, 238.934L132.087, 236.7L132.347, 234.185L132.508, 231.544L132.511, 228.93L132.3, 226.5L132.269, 225.597L132.125, 224.75L131.569, 224.053L131.042, 223.79L130.3, 223.6L129.344, 223.612L128.219, 223.955L126.953, 224.642L125.575, 225.687L124.112, 227.103L122.594, 228.902L121.047, 231.096L119.5, 233.7L119.059, 234.047L118.5, 234.1L118.029, 233.871L117.8, 233.4L117.513, 231.583L117.188, 230.153L116.844, 229.065L116.5, 228.275L116.175, 227.738L115.888, 227.409L115.5, 227.2L115.123, 227.247L114.437, 227.575L113.976, 227.932L113.433, 228.466L112.808, 229.21L112.1, 230.2L113.6, 226.6L113.984, 226.054L114.511, 225.672L115.133, 225.479L115.8, 225.5L116.892, 226.033L117.788, 227.062L118.514, 228.636L119.1, 230.8L120.583, 228.642L122.092, 226.752L123.609, 225.145L125.113, 223.837L126.583, 222.844L128.002, 222.18L129.347, 221.86L130.6, 221.9L131.527, 221.995L132.538, 222.363L133.019, 222.827L133.455, 223.573L133.822, 224.674L134.1, 226.2L134.313, 229.939L134.15, 233.837L133.762, 237.492L133.531, 239.102L133.3, 240.5L135.232, 239.563L137.307, 239.198L139.404, 239.409L141.4, 240.2L142.9, 241.6L143.689, 243.086L144.108, 244.693L144.149, 246.354L143.8, 248"/><path stroke="black" fill="none" stroke-width="1" d="M127.2, 207.1L128.38, 206.431L129.4, 205.877L130.308, 205.474L131.15, 205.263L131.973, 205.281L132.825, 205.567L133.752, 206.161L134.8, 207.1L136.159, 206.413L137.272, 205.936L138.193, 205.681L138.975, 205.663L139.673, 205.892L140.341, 206.383L141.032, 207.148L141.8, 208.2"/><path stroke="black" fill="none" stroke-width="1" d="M148.6, 217.9L148.5, 218.3L146.9, 218.3L146.8, 218L146.738, 215.708L146.6, 213.387L146.527, 212.384L146.462, 211.573L146.417, 211.023L146.4, 210.8L146.597, 210.169L147.2, 209.9L147.831, 210.097L148.1, 210.7L148.146, 210.923L148.206, 211.473L148.276, 212.284L148.35, 213.288L148.494, 215.608L148.6, 217.9"/><path stroke="black" fill="none" stroke-width="1" d="M149.7, 214.5L147.5, 214.5L146.864, 214.236L146.6, 213.6L146.897, 213.028L147.5, 212.8L149.7, 212.8L150.303, 213.028L150.6, 213.6L150.531, 213.944L150.201, 214.349L149.7, 214.5"/><path stroke="black" fill="none" stroke-width="1" d="M124.8, 271.8L121.661, 272.211L118.5, 272.4"/><path stroke="black" fill="none" stroke-width="1" d="M54.5, 294.2L54.984, 294.406L55.271, 294.847L55.291, 295.272L55.125, 295.642L54.814, 295.903L54.4, 296L54.3, 296L50.876, 295.501L47.869, 294.989L45.265, 294.479L43.05, 293.988L41.21, 293.528L39.731, 293.117L38.599, 292.769L37.8, 292.5L37.8, 290.7L37.9, 290.7L38.174, 290.793L38.933, 291.05L40.19, 291.438L41.962, 291.925L44.264, 292.477L47.111, 293.063L50.518, 293.648L54.5, 294.2"/><path stroke="black" fill="none" stroke-width="1" d="M90.2, 293.8L91.666, 292.439L93.285, 291.277L95.036, 290.326L96.9, 289.6"/><path stroke="black" fill="none" stroke-width="1" d="M145.4, 291.7L139.66, 295.007L133.7, 297.9"/><path stroke="black" fill="none" stroke-width="1" d="M135.7, 297L141, 297.2"/><path stroke="black" fill="none" stroke-width="1" d="M32.6, 230.4L38.618, 230.049L44.295, 230.183L49.74, 230.778L55.063, 231.813L60.371, 233.264L65.773, 235.111L71.38, 237.33L77.3, 239.9L64.877, 239.17L58.904, 238.879L53.438, 238.637L50.974, 238.536L48.735, 238.448L46.751, 238.373L45.055, 238.311L43.679, 238.263L42.657, 238.228L42.02, 238.207L41.8, 238.2"/><path stroke="black" fill="none" stroke-width="1" d="M24.5, 355L24.5, 316.1L24.783, 314.699L25.555, 313.555L26.699, 312.783L28.1, 312.5M28.1, 312.5L94.7, 312.5L96.101, 312.783L97.246, 313.554L98.017, 314.699L98.3, 316.1L98.3, 355"/><path stroke="black" fill="none" stroke-width="1" d="M88.1, 355L88.1, 316.1L88.383, 314.699L89.155, 313.555L90.299, 312.783L91.7, 312.5M91.7, 312.5L94.7, 312.5L96.101, 312.783L97.246, 313.554L98.017, 314.699L98.3, 316.1L98.3, 355"/><path stroke="black" fill="none" stroke-width="1" d="M31.4, 355L31.4, 348.6L31.625, 347.456L32.243, 346.513L33.164, 345.864L34.3, 345.6M34.3, 345.6L78.3, 345.6L79.468, 345.835L80.422, 346.478L81.065, 347.432L81.3, 348.6L81.3, 355"/><path stroke="black" fill="none" stroke-width="1" d="M36.3, 312.5L36.3, 355"/><path stroke="black" fill="none" stroke-width="1" d="M76.2, 312.5L76.2, 355"/><path stroke="black" fill="none" stroke-width="1" d="M78.7, 316.1L79.673, 316.296L80.468, 316.832L81.004, 317.627L81.2, 318.6L81.2, 334.59L81.004, 335.563L80.468, 336.358L79.673, 336.894L78.7, 337.09L33.8, 337.09L32.827, 336.894L32.032, 336.358L31.496, 335.563L31.3, 334.59L31.3, 318.6L31.496, 317.627L32.032, 316.832L32.827, 316.296L33.8, 316.1L78.7, 316.1"/><path stroke="black" fill="none" stroke-width="1" d="M87.2, 319.5L98.3, 319.5L98.3, 321.5L87.2, 321.5L86.493, 321.207L86.2, 320.5L86.457, 319.757L87.2, 319.5"/><path stroke="black" fill="none" stroke-width="1" d="M86.2, 324.8L86.492, 324.092L87.2, 323.8L98.3, 323.8L98.3, 325.8L87.2, 325.8L86.791, 325.753L86.458, 325.542L86.247, 325.209L86.2, 324.8"/><path stroke="black" fill="none" stroke-width="1" d="M86.2, 329.2L86.457, 328.457L87.2, 328.2L98.3, 328.2L98.3, 330.2L87.2, 330.2L86.493, 329.907L86.2, 329.2"/><path stroke="black" fill="none" stroke-width="1" d="M26.3, 320.5L25.982, 321.182L25.3, 321.5L24.5, 321.5L24.5, 319.5L25.3, 319.5L26.008, 319.792L26.3, 320.5"/><path stroke="black" fill="none" stroke-width="1" d="M26.3, 324.8L26.007, 325.507L25.3, 325.8L24.5, 325.8L24.5, 323.8L25.3, 323.8L25.982, 324.118L26.3, 324.8"/><path stroke="black" fill="none" stroke-width="1" d="M26.3, 329.2L25.982, 329.882L25.3, 330.2L24.5, 330.2L24.5, 328.2L25.3, 328.2L26.008, 328.492L26.3, 329.2"/><path stroke="black" fill="none" stroke-width="1" d="M65.9, 317.6L66.406, 317.702L66.819, 317.981L67.098, 318.394L67.2, 318.9L67.2, 332.75L67.098, 333.256L66.819, 333.669L66.406, 333.948L65.9, 334.05L36.6, 334.05L36.094, 333.948L35.681, 333.669L35.402, 333.256L35.3, 332.75L35.3, 318.9L35.402, 318.394L35.681, 317.981L36.094, 317.702L36.6, 317.6L65.9, 317.6"/><path stroke="black" fill="none" stroke-width="1" d="M78.3, 334.1L78.936, 334.364L79.2, 335L79.2, 336.22L78.936, 336.856L78.3, 337.12L70.3, 337.12L69.664, 336.856L69.4, 336.22L69.4, 335L69.664, 334.364L70.3, 334.1L78.3, 334.1"/><path stroke="black" fill="none" stroke-width="1" d="M47.1, 319.5L47.3, 317.6L65.3, 317.6L65.5, 319.5L65.322, 321.303L64.8, 323.021L63.954, 324.604L62.805, 326.005L60.897, 327.469L58.543, 328.433L56.154, 328.713L53.836, 328.37L51.698, 327.467L49.848, 326.067L48.393, 324.23L47.441, 322.021L47.1, 319.5"/><path stroke="black" fill="none" stroke-width="1" d="M38, 334.1L39.481, 332.471L41.28, 331.254L43.314, 330.492L45.5, 330.228L47.686, 330.492L49.72, 331.254L51.519, 332.471L53, 334.1L38, 334.1"/></svg>